<?xml version="1.0" standalone="no"?>
<!DOCTYPE svg PUBLIC "-//W3C//DTD SVG 20010904//EN"
 "http://www.w3.org/TR/2001/REC-SVG-20010904/DTD/svg10.dtd">
<svg version="1.0" xmlns="http://www.w3.org/2000/svg"
 width="1152.000000pt" height="1152.000000pt" viewBox="0 0 1152.000000 1152.000000"
 preserveAspectRatio="xMidYMid meet">
<metadata>
Created by potrace 1.14, written by Peter Selinger 2001-2017
</metadata>
<g transform="translate(0.000000,1152.000000) scale(0.100000,-0.100000)"
fill="#000000" stroke="none">
<path d="M5775 10540 c-20 -8 -160 -52 -180 -56 -32 -6 -41 -10 -47 -18 -3 -6
-19 -11 -33 -13 -15 -2 -44 -15 -66 -29 -21 -13 -39 -22 -39 -19 0 3 -12 -1
-27 -8 -18 -9 -59 -13 -115 -12 -49 1 -88 -1 -88 -4 0 -4 -44 -6 -97 -5 -56 0
-101 -4 -105 -9 -3 -6 -35 -12 -70 -13 -34 -2 -81 -6 -103 -9 -22 -4 -49 -7
-60 -8 -11 -1 -23 -6 -27 -12 -5 -6 -8 -5 -8 3 0 9 -7 9 -30 -3 -16 -9 -30
-13 -30 -11 0 3 -19 -2 -42 -10 -74 -27 -118 -35 -190 -37 -22 0 -35 -5 -31
-10 4 -6 -3 -8 -16 -4 -12 3 -28 -1 -36 -10 -8 -8 -15 -12 -15 -8 0 3 -10 -1
-22 -9 -12 -9 -33 -16 -46 -16 -13 0 -31 -4 -40 -9 -9 -5 -38 -12 -65 -15 -26
-4 -60 -11 -75 -17 -15 -6 -29 -11 -32 -11 -5 0 -11 -3 -75 -28 -16 -6 -37
-13 -45 -15 -9 -2 -49 -14 -90 -28 -41 -14 -91 -28 -110 -32 -37 -7 -113 -44
-118 -58 -2 -4 -7 -5 -11 -2 -5 2 -32 -5 -62 -16 -30 -11 -70 -25 -89 -31 -19
-5 -42 -16 -51 -24 -9 -8 -18 -12 -21 -9 -3 3 -27 -4 -54 -16 -27 -12 -51 -23
-54 -24 -3 -1 -21 -9 -40 -18 -28 -12 -77 -16 -255 -17 -194 -1 -222 -3 -236
-18 -9 -9 -33 -84 -54 -167 l-38 -150 -103 -105 c-57 -58 -104 -109 -104 -114
0 -8 -52 -69 -125 -147 -14 -14 -25 -32 -25 -38 0 -7 -9 -22 -21 -34 -11 -12
-37 -44 -58 -72 -145 -193 -181 -243 -193 -265 -8 -14 -57 -90 -109 -170 -116
-176 -142 -220 -135 -220 3 0 -7 -19 -24 -42 -16 -22 -30 -45 -30 -51 0 -5
-13 -29 -30 -54 -16 -24 -30 -50 -30 -58 0 -8 -4 -16 -10 -20 -5 -3 -7 -12 -4
-20 4 -8 -1 -17 -9 -21 -8 -3 -17 -18 -20 -33 -3 -15 -27 -72 -54 -127 -26
-54 -48 -101 -48 -104 -1 -3 -7 -18 -15 -35 -41 -98 -129 -339 -125 -346 3 -4
-4 -23 -15 -42 -11 -19 -18 -42 -14 -51 3 -9 1 -16 -6 -16 -6 0 -8 -5 -5 -11
4 -5 -4 -27 -18 -47 -14 -20 -28 -52 -32 -70 -4 -18 -12 -31 -18 -29 -7 2 -17
-2 -24 -9 -18 -18 -16 -29 2 -14 20 17 19 12 -12 -56 -15 -33 -37 -67 -50 -77
-13 -10 -23 -26 -23 -35 0 -15 2 -15 10 -2 8 13 10 12 10 -2 0 -10 -5 -18 -11
-18 -5 0 -8 -4 -4 -9 6 -10 -14 -61 -24 -61 -4 0 -8 -12 -9 -27 -1 -16 -9 -48
-17 -73 -22 -65 -75 -233 -75 -238 0 -18 39 50 44 78 9 44 37 122 48 134 7 9
4 -37 -8 -104 -2 -14 -7 -51 -11 -82 -3 -32 -10 -58 -15 -58 -5 0 -6 -5 -3
-10 4 -6 2 -34 -4 -63 -6 -28 -13 -72 -15 -97 -3 -25 -7 -56 -10 -70 -3 -14
-7 -44 -10 -65 -2 -22 -6 -56 -10 -75 -15 -91 -19 -120 -22 -180 -2 -36 -6
-94 -9 -130 -9 -129 -10 -190 -2 -190 5 0 5 -6 0 -12 -9 -16 -11 -88 -3 -88 4
0 4 -24 1 -52 -9 -82 -5 -241 15 -483 3 -38 6 -81 7 -95 1 -14 5 -29 8 -35 4
-5 3 -19 -1 -29 -3 -11 -1 -45 6 -75 7 -31 11 -65 8 -76 -3 -11 3 -56 12 -100
9 -44 18 -91 19 -105 5 -45 27 -145 36 -165 5 -11 16 -49 24 -85 8 -36 26
-108 40 -160 15 -52 31 -113 36 -135 15 -62 47 -149 101 -275 27 -63 51 -123
53 -132 7 -33 214 -426 279 -532 36 -59 66 -109 66 -112 0 -8 98 -151 172
-252 l68 -92 0 -408 1 -407 42 -27 c23 -14 45 -24 49 -22 5 3 8 34 8 70 l0 64
37 -25 c21 -13 53 -32 72 -40 19 -9 41 -21 49 -27 8 -7 21 -13 30 -14 8 -2 19
-9 23 -16 7 -10 -10 -14 -79 -16 -48 -1 -93 -5 -101 -8 -17 -6 -5 -15 81 -63
l57 -31 399 0 398 0 35 -26 c19 -14 48 -32 64 -40 31 -15 50 -26 97 -56 14
-10 31 -18 36 -18 6 0 37 -15 71 -34 33 -19 76 -40 95 -47 20 -7 36 -17 36
-22 0 -4 5 -5 10 -2 6 3 24 -3 40 -15 17 -12 30 -19 30 -15 0 3 10 0 22 -7 13
-7 26 -11 31 -10 4 1 7 -3 7 -9 0 -5 4 -8 8 -5 5 3 21 -1 35 -9 15 -8 30 -14
32 -14 3 -1 22 -8 43 -16 20 -9 60 -23 87 -32 28 -9 59 -22 70 -29 11 -7 40
-18 65 -25 25 -7 50 -16 56 -21 6 -4 32 -11 58 -14 25 -4 46 -11 46 -16 0 -5
5 -6 10 -3 6 4 36 -6 66 -20 31 -15 68 -29 83 -31 14 -3 35 -8 46 -11 28 -10
45 -13 89 -19 22 -3 48 -10 57 -15 10 -5 37 -11 60 -14 23 -3 46 -8 50 -11 4
-2 30 -7 56 -9 26 -3 59 -7 73 -10 38 -8 299 -22 443 -24 46 -1 68 -16 25 -18
-68 -2 -182 -14 -187 -19 -6 -6 249 3 287 11 10 2 39 4 63 6 24 1 50 7 57 12
8 6 12 5 12 -3 0 -9 4 -9 17 1 9 8 18 13 20 12 1 -2 4 -3 6 -2 25 7 67 7 63 0
-8 -13 19 -8 37 7 8 7 26 15 38 18 13 3 29 6 34 7 6 2 16 6 23 10 6 5 16 6 21
2 5 -3 12 -1 16 5 4 6 11 8 16 4 5 -3 15 -2 22 3 7 5 19 9 27 8 8 -1 23 3 33
8 10 5 37 10 60 12 23 1 62 6 87 9 25 4 52 8 60 9 8 2 20 5 25 9 6 3 21 4 35
3 14 -1 35 2 47 6 13 5 38 9 58 11 19 1 35 5 35 10 0 4 19 7 43 6 23 0 50 2
59 6 9 4 22 9 30 10 47 8 118 31 118 38 0 5 10 3 22 -3 13 -7 23 -8 25 -2 2 5
17 8 33 7 17 -1 30 2 30 6 0 5 8 9 18 9 21 0 67 8 67 11 0 1 11 3 25 4 14 2
45 6 70 11 25 4 61 9 80 10 19 2 37 4 40 5 3 1 14 3 25 4 11 1 36 5 55 9 19 4
98 10 175 12 194 7 258 13 345 31 14 3 38 5 54 5 16 0 53 6 82 15 28 8 56 14
60 13 5 -1 20 2 34 8 14 6 41 13 60 16 43 7 86 22 168 59 35 15 65 28 68 28
12 0 79 34 85 43 3 5 9 8 13 8 22 -2 120 45 199 96 l68 43 556 0 556 0 34 26
33 25 0 526 0 525 29 37 c110 140 378 565 380 604 1 4 28 61 60 126 33 65 57
121 54 125 -4 3 -1 6 5 6 7 0 12 9 12 20 0 11 11 45 25 76 14 31 25 67 25 80
0 13 4 24 8 24 5 0 9 6 9 13 0 7 16 55 36 107 21 53 39 105 42 118 6 32 48
156 54 162 3 3 7 12 7 20 1 8 20 81 43 162 23 81 41 158 41 172 0 14 5 28 10
31 6 4 8 10 5 15 -2 4 2 28 9 54 8 25 12 46 9 46 -3 0 -1 6 4 13 10 12 19 71
29 192 3 33 6 66 6 73 1 6 6 12 11 12 5 0 6 12 3 26 -4 14 -3 31 3 37 5 7 12
26 15 42 3 17 22 89 41 160 20 72 38 141 39 155 2 14 9 46 15 73 24 103 31
138 31 163 0 14 4 23 8 20 4 -2 8 16 9 42 0 26 3 65 6 87 9 58 18 135 23 175
2 19 6 195 8 390 5 350 -9 610 -34 665 -9 20 -6 -73 4 -140 11 -70 22 -444 16
-580 -2 -69 -17 -10 -24 95 -11 192 -17 256 -27 298 -5 24 -7 47 -4 53 4 5 3
9 -2 9 -4 0 -8 14 -7 31 1 30 -7 82 -22 139 -3 14 -5 37 -5 52 1 15 -3 29 -8
33 -5 3 -8 15 -6 26 2 11 -2 39 -10 62 -8 23 -16 58 -19 77 -3 19 -9 51 -15
70 -5 19 -16 60 -25 90 -18 70 -70 225 -103 310 -14 36 -30 79 -36 95 -12 34
-21 58 -66 164 -17 40 -31 79 -31 86 0 7 -4 15 -8 17 -4 2 -38 64 -75 138 -37
75 -79 156 -95 180 -32 49 -119 197 -140 236 -7 13 -18 24 -24 24 -6 0 -8 3
-5 6 4 4 -7 22 -23 41 -17 18 -30 40 -30 48 0 8 -4 15 -10 15 -5 0 -10 6 -10
13 0 8 -11 24 -25 37 -14 13 -23 25 -21 28 3 2 -5 15 -17 29 -12 13 -22 28
-21 31 0 4 -4 12 -10 18 -6 6 -18 22 -26 34 -8 12 -20 28 -27 35 -32 34 -53
92 -53 150 0 104 -28 254 -59 320 -54 114 -211 246 -376 314 -42 18 -133 46
-203 64 -125 31 -128 32 -217 102 -49 38 -92 73 -95 76 -12 15 -263 185 -371
252 -42 26 -83 47 -92 47 -8 0 -22 7 -31 15 -19 20 -95 54 -118 55 -10 0 -18
5 -18 10 0 6 -6 10 -14 10 -8 0 -16 5 -18 10 -2 6 -14 11 -28 12 -14 1 -29 5
-35 8 -5 4 -44 17 -85 29 -41 13 -91 29 -110 36 -19 7 -53 18 -75 24 -22 5
-51 14 -65 17 -14 4 -32 8 -40 9 -8 1 -35 8 -60 15 -65 18 -80 21 -125 26 -22
3 -51 9 -65 14 -14 6 -34 9 -45 9 -11 -1 -45 2 -75 7 -61 9 -302 9 -425 1
-122 -8 -233 -17 -305 -23 -64 -6 -106 -7 -520 -18 -196 -5 -204 -5 -175 11
17 10 32 18 35 18 23 4 50 18 50 26 0 5 -1 9 -2 8 -2 0 -12 -4 -23 -9z"/>
<path d="M10532 7240 c0 -14 2 -19 5 -12 2 6 2 18 0 25 -3 6 -5 1 -5 -13z"/>
<path d="M10549 7139 c0 -8 -2 -25 -4 -39 -1 -14 2 -31 7 -37 6 -7 8 -20 4
-28 -3 -8 -1 -15 4 -15 6 0 7 25 3 63 -6 60 -12 86 -14 56z"/>
<path d="M1021 6514 c0 -11 3 -14 6 -6 3 7 2 16 -1 19 -3 4 -6 -2 -5 -13z"/>
</g>
</svg>
