<?xml version="1.0" encoding="UTF-8"?>
<svg width="87px" height="87px" viewBox="0 0 87 87" version="1.1" xmlns="http://www.w3.org/2000/svg" xmlns:xlink="http://www.w3.org/1999/xlink">
    <!-- Generator: Sketch 49.3 (51167) - http://www.bohemiancoding.com/sketch -->
    <title>Page 1</title>
    <desc>Created with Sketch.</desc>
    <defs>
        <polygon id="path-1" points="0 0.0319384711 86.9206103 0.0319384711 86.9206103 86.7872856 0 86.7872856"></polygon>
    </defs>
    <g id="Page-1" stroke="none" stroke-width="1" fill="none" fill-rule="evenodd">
        <g id="Homepage---Logged-Out" transform="translate(-661.000000, -938.000000)">
            <g id="Page-1" transform="translate(661.000000, 938.000000)">
                <g id="Group-3" transform="translate(0.000000, 0.180807)">
                    <mask id="mask-2" fill="white">
                        <use xlink:href="#path-1"></use>
                    </mask>
                    <g id="Clip-2"></g>
                    <path d="M43.4305489,85.3846078 C44.2295024,85.3846078 45.0384535,85.4652264 45.8257078,85.3684416 C47.6797225,85.1408377 49.553945,85.0600064 51.3807323,84.6179868 C52.5523606,84.3344391 53.7469621,84.140444 54.9102946,83.8279672 C56.4505562,83.4140259 57.9165807,82.7735443 59.4157885,82.2351653 C60.6537836,81.7908059 61.8035024,81.1835076 62.954923,80.5772729 C63.4767103,80.3026592 63.987011,80.0027325 64.5215611,79.7485394 C64.750654,79.6396298 64.9712384,79.5079599 65.1822506,79.3665051 C65.9148374,78.8751359 66.6446589,78.3792998 67.369588,77.8768694 C67.9813533,77.4525051 68.609923,77.0468597 69.1827616,76.5746347 C69.5477787,76.2736445 69.9142848,75.9790357 70.2903631,75.6920846 C70.7189817,75.365356 71.1005905,74.9773658 71.5049597,74.6187301 C71.9478301,74.2258474 72.4132482,73.8557252 72.8329328,73.4396567 C73.3140917,72.9625394 73.751857,72.4413902 74.2168496,71.9474685 C74.5420892,71.6024465 74.9022139,71.2884807 75.2097983,70.9289941 C75.6947861,70.3627496 76.1623313,69.7803389 76.612434,69.1860161 C77.1748496,68.4440699 77.713654,67.6842557 78.259478,66.9297594 C78.3981675,66.7383169 78.5351553,66.5445345 78.6555513,66.3413927 C78.8627347,65.9914782 78.8214682,65.7211188 78.3971039,65.5977447 C78.175456,65.5332924 77.9710379,65.3963046 77.7712995,65.2720797 C76.6762482,64.5918205 75.6299083,63.8322191 74.4625342,63.269378 C74.1885587,63.1372826 73.9392579,62.9534978 73.6814487,62.7886445 C73.2258154,62.4974391 72.7774144,62.1949599 72.3175269,61.9107741 C71.7578765,61.5651139 71.1878032,61.2366836 70.625813,60.8948523 C69.8434511,60.4190112 69.0717249,59.9253022 68.2808545,59.4641384 C67.8481944,59.2118597 67.7226932,59.2633364 67.4453142,59.6804685 C67.2106907,60.0335736 66.9996785,60.404334 66.7420819,60.7397839 C66.2883631,61.3304905 65.8146491,61.9065198 65.3345538,62.4761677 C65.0520697,62.8107667 64.749165,63.1291995 64.4405171,63.4401873 C64.0840086,63.7998866 63.7085685,64.1410797 63.3461039,64.4952484 C63.1167983,64.7194489 62.9142946,64.9740675 62.66861,65.1776347 C62.083434,65.6632606 61.4712433,66.1161286 60.88628,66.60218 C60.4025685,67.004422 59.8858863,67.3517839 59.3470819,67.6746836 C58.5487665,68.1528645 57.7885269,68.6991139 56.9687274,69.1356029 C56.2569866,69.5148719 55.4865367,69.7850186 54.7394853,70.0972826 C54.3168227,70.2740479 53.8939474,70.4529403 53.4623509,70.6054562 C52.5681015,70.9217619 51.6864022,71.3065614 50.7653509,71.5077888 C49.3401675,71.819202 47.9094535,72.129977 46.4453435,72.2433535 C44.9510281,72.3588572 43.4586271,72.4105467 41.9609083,72.3354587 C40.5325342,72.2635614 39.122879,72.0725443 37.7132237,71.8247325 C36.4324731,71.5994685 35.2085171,71.201268 33.9762653,70.8177447 C33.5878496,70.6967105 33.2077298,70.5433438 32.833566,70.3829575 C32.3043337,70.1562044 31.7819083,69.9130724 31.260121,69.6697276 C30.7249328,69.4197888 30.1788961,69.1870797 29.6634902,68.9003413 C28.8941039,68.4721482 28.1479034,68.0024758 27.3906418,67.5523731 C27.2155782,67.4485687 27.0154144,67.3779477 26.8611968,67.2503193 C25.8291088,66.3960601 24.7946809,65.5445663 23.784077,64.6654196 C22.769857,63.7828694 21.8709279,62.7867301 21.0270917,61.7410284 C20.8796809,61.5585198 20.7237616,61.3828181 20.5837958,61.1952044 C20.1987836,60.6791604 19.8329156,60.1484391 19.4351406,59.6426054 C19.0928839,59.2073927 19.0267298,59.2135614 18.5593973,59.5111482 C17.6891846,60.0650553 16.8221626,60.6240675 15.9438667,61.1645736 C15.5852311,61.3853707 15.1897958,61.5466078 14.8292457,61.7646396 C14.3378765,62.061801 13.869055,62.3957619 13.381302,62.6986665 C12.819099,63.0479428 12.2475367,63.3821164 11.6783142,63.7201188 C11.2552262,63.9711213 10.8249059,64.209999 10.4060721,64.4675956 C9.82983007,64.8217643 9.27932641,65.2220919 8.68415281,65.5398866 C8.14300856,65.8287521 8.08897922,65.8691677 8.34168337,66.4115883 C8.41315526,66.5643169 8.50121883,66.7123658 8.60055623,66.8487154 C8.829011,67.1626812 9.06618704,67.4704782 9.30506479,67.7767863 C9.877478,68.510224 10.4407445,69.2513193 11.0303875,69.9707178 C11.6193924,70.6894782 12.2232873,71.3971775 12.8454756,72.0874342 C13.2404853,72.5256249 13.6805905,72.9238254 14.1015513,73.3386176 C14.4627396,73.694488 14.8190355,74.0563144 15.1900086,74.4019746 C15.6839303,74.8616494 16.1763631,75.3245149 16.6947469,75.7554733 C17.0965636,76.0898597 17.5436883,76.3691531 17.9586932,76.688224 C18.5615244,77.1515149 19.1198985,77.6724513 19.8018594,78.0306616 C20.0543509,78.1631824 20.2691919,78.3654733 20.5125367,78.5179892 C21.2721381,78.9944685 22.0293998,79.475202 22.8026149,79.9287081 C23.2703729,80.2028963 23.7681235,80.4251824 24.2484315,80.6785247 C24.9518765,81.0494978 25.6306467,81.4753511 26.3579156,81.7901677 C27.28939,82.1934733 28.2574511,82.5125443 29.2118985,82.8618205 C29.6898667,83.0364587 30.1878301,83.1642998 30.6506956,83.3719086 C31.4511381,83.7311824 32.3005049,83.8890161 33.1473191,84.0700357 C33.6618741,84.1800088 34.1723875,84.3091262 34.6848154,84.4293095 C34.8998692,84.4797227 35.1140721,84.5343902 35.3308276,84.5771457 C36.4811846,84.8043242 37.6353704,84.9957667 38.8046589,85.1140357 C40.3440697,85.269955 41.8766736,85.4909648 43.4305489,85.3846078 M1.4950599,43.2640577 C1.54313325,44.5005638 1.5469621,45.5909355 1.63715281,46.6740748 C1.75882518,48.129889 1.94665159,49.5803853 2.10852689,51.0327961 C2.12171516,51.1504269 2.15192054,51.2667814 2.18063692,51.3820724 C2.43887164,52.4190528 2.68625795,53.4590112 2.96193521,54.4915247 C3.16316259,55.2458083 3.38991565,55.9943487 3.62794254,56.7382093 C3.8608643,57.4648401 4.12250244,58.1823242 4.37159046,58.9038499 C4.4103044,59.0159501 4.43859535,59.1329428 4.49071027,59.2384489 C4.86423594,59.9984758 5.23563447,60.7599917 5.6221357,61.5136372 C6.06224083,62.3721506 6.37429218,63.2923511 6.93309169,64.0955589 C7.27726284,64.5905443 7.30044866,64.6407447 7.85222861,64.3429452 C8.37252689,64.0619501 8.87708435,63.7524513 9.39015037,63.458268 C9.55160024,63.3657374 9.72538753,63.293202 9.88109413,63.1921628 C10.5211504,62.7780088 11.1486565,62.3442851 11.7950941,61.9407667 C12.558099,61.4645002 13.3374829,61.0150357 14.1066565,60.548554 C15.0306858,59.9878401 15.9528007,59.4239355 16.8730012,58.8566274 C17.2916222,58.5983927 17.7083289,58.3365418 18.115676,58.06129 C18.396033,57.8719746 18.3956076,57.7507276 18.1890623,57.4873878 C18.0765367,57.3438059 17.9771993,57.186823 17.8929645,57.024735 C17.6832286,56.6203658 17.4779597,56.2130186 17.2846027,55.8005663 C16.9970134,55.1885883 16.7024046,54.5787374 16.4473606,53.952933 C16.2686809,53.5141042 16.1565807,53.0482606 16.0044902,52.5979452 C15.8087934,52.0191506 15.5375831,51.4571604 15.4144218,50.8641139 C15.1249181,49.4682851 14.7379914,48.0918132 14.6244022,46.6587594 C14.3897787,43.697356 14.4046687,40.7612655 15.014945,37.8287912 C15.3389083,36.2723633 15.8424022,34.7833658 16.3224976,33.2807545 C16.4718227,32.8129966 16.64561,32.3488548 16.8549205,31.9049208 C17.1642066,31.2493364 17.5113557,30.6114073 17.84872,29.969224 C18.1473704,29.401065 18.4464462,28.8329061 18.760412,28.2732557 C18.9510037,27.933977 19.1556345,27.6004416 19.3806858,27.2832851 C19.6744438,26.8695565 19.9973435,26.4766738 20.3023753,26.0708156 C20.4950941,25.8147081 20.650588,25.5254171 20.8698961,25.2961115 C21.6535342,24.4767374 22.33039,23.5652582 23.1789059,22.7969355 C23.9940257,22.0588181 24.7931919,21.3058108 25.6623411,20.6308694 C25.7950746,20.5277032 25.9307861,20.4285785 26.0633068,20.3251995 C26.5046883,19.9808156 26.9216076,19.5987814 27.39128,19.2988548 C28.0902579,18.8523682 28.815187,18.4428939 29.5494756,18.05618 C30.2382433,17.69329 30.9529621,17.3784733 31.6578961,17.0466396 C31.8421064,16.9598523 32.0314218,16.883488 32.2211626,16.8094636 C33.2181528,16.4212606 34.2004658,15.9858352 35.2187274,15.663999 C36.0880892,15.3891726 36.9923362,15.2053878 37.8936051,15.0539355 C39.1498936,14.8429232 40.4134144,14.652757 41.6814022,14.5372533 C44.0350819,14.3228377 46.3645122,14.6210626 48.6905391,14.9599159 C49.8040966,15.1222166 50.8717078,15.4644733 51.963143,15.7127105 C52.1118301,15.746532 52.25839,15.7950308 52.3998447,15.8518254 C53.6440086,16.3519159 54.8873215,16.8530699 56.12872,17.3597545 C56.3480281,17.4490944 56.5635073,17.5524733 56.7683509,17.6707423 C57.5313557,18.110422 58.3024438,18.5384024 59.0448154,19.0110528 C59.7172042,19.4388205 60.3857641,19.8833927 61.0002946,20.3885883 C61.4316785,20.7436078 61.84328,21.1198988 62.3169939,21.4206763 C62.4307958,21.492999 62.5403435,21.5768083 62.6369156,21.6706152 C63.0744682,22.0954049 63.4898985,22.544444 63.9444682,22.9494513 C64.5819719,23.5173976 65.1965024,24.0987447 65.6278863,24.8472851 C65.6772359,24.9332215 65.747857,25.011713 65.8227323,25.0774416 C66.6784804,25.829598 67.1913337,26.8406274 67.835857,27.7512557 C68.1185538,28.1503071 68.2946809,28.6321042 68.6080086,29.0005247 C69.288055,29.7992655 69.5724535,30.7949795 69.9883093,31.712202 C70.4824438,32.802999 71.0201846,33.8916689 71.2609768,35.0900993 C71.4381675,35.9715858 71.704698,36.834779 71.8967787,37.713713 C72.0416369,38.3765296 72.1348056,39.0508328 72.2452042,39.7210944 C72.2892359,39.9891139 72.3387983,40.2588352 72.3485831,40.5291946 C72.3917641,41.7352826 72.4647249,42.9428597 72.4434535,44.1483095 C72.424522,45.2161335 72.3126345,46.283532 72.2081919,47.3477399 C72.1550134,47.8869697 72.0275978,48.4189672 71.9331528,48.9539428 C71.8857176,49.2217496 71.8538105,49.493598 71.7857421,49.7558743 C71.5162335,50.7913658 71.2371528,51.8243046 70.9567958,52.8568181 C70.9125513,53.0199697 70.854055,53.1812068 70.7853484,53.3358499 C70.3797029,54.2486054 69.9698032,55.1592337 69.5607543,56.0702875 C69.3325122,56.5788866 69.2076491,57.1366225 68.8041308,57.5609868 C68.6492751,57.7241384 68.6884144,57.9081359 68.8836858,58.0364024 C69.5633068,58.4833144 70.2367592,58.9406494 70.9272286,59.3709697 C71.5866418,59.781933 72.2703044,60.1546078 72.9318447,60.5625932 C73.3491895,60.8201897 73.735478,61.1286249 74.1547372,61.3828181 C74.4425391,61.5570308 74.7769254,61.6538156 75.065791,61.8267521 C75.5014291,62.0873267 75.9066491,62.3981017 76.3401601,62.6625051 C77.323324,63.2621457 78.3132946,63.8505125 79.3060306,64.4337741 C79.5989377,64.6058597 79.6461601,64.5918205 79.8335611,64.2918939 C80.2017689,63.7018254 80.586143,63.1185638 80.9067029,62.5025443 C81.2810795,61.782933 81.6931064,61.0752337 81.8947592,60.2760675 C81.9317714,60.1292949 82.0062213,59.9916689 82.0664193,59.851065 C82.326143,59.2454685 82.5875685,58.6407227 82.846654,58.0349134 C82.9332286,57.8326225 83.0257592,57.6318205 83.0963802,57.4235736 C83.3358961,56.7169379 83.5779645,56.0109403 83.7959963,55.2977105 C83.9095856,54.926312 83.96872,54.5387472 84.0623142,54.1609672 C84.2541822,53.3856249 84.4896565,52.6187912 84.6398325,51.8357912 C84.8574389,50.7028768 85.020165,49.5593267 85.1973557,48.4187545 C85.3694413,47.3103022 85.5474829,46.2033389 85.5177029,45.0734024 C85.4977078,44.3086958 85.4921773,43.5418621 85.5294022,42.7782191 C85.6259743,40.7914709 85.2228814,38.8510944 85.0131455,36.8932753 C84.9648594,36.4404073 84.8180868,35.9981751 84.719813,35.5501995 C84.6036711,35.0194782 84.504121,34.4847154 84.373302,33.9576103 C84.2095122,33.2979844 83.9542555,32.6538866 83.8606614,31.9857521 C83.7460086,31.1640381 83.4360844,30.4140088 83.1740208,29.6458988 C82.944077,28.9728719 82.6603166,28.317713 82.3846394,27.6612778 C82.2610526,27.3666689 82.0791822,27.0960968 81.9594242,26.799999 C81.6871504,26.1273976 81.4714584,25.4409697 81.1064413,24.796021 C80.7582286,24.1804269 80.4470281,23.5420724 80.0703117,22.9379648 C79.8563215,22.5944318 79.7267787,22.1981457 79.5121504,21.8548254 C79.0728961,21.1515932 78.6042873,20.4662289 78.1429108,19.776823 C77.8597885,19.3541604 77.5877274,18.9215002 77.2748252,18.521598 C76.6485954,17.7207301 75.9983289,16.9385809 75.3565709,16.1498377 C75.1863998,15.9409526 75.021121,15.7271751 74.8362726,15.5321164 C74.4053142,15.0775467 73.9515954,14.6440357 73.5304218,14.1811702 C73.1196711,13.7295785 72.71828,13.2733071 72.1990452,12.9382826 C72.1154487,12.884466 72.0518472,12.7998059 71.9771846,12.7310993 C71.4694364,12.2633413 71.062302,11.6911408 70.4584071,11.321444 C70.1414633,11.1274489 69.8589792,10.8766592 69.5643704,10.6473535 C68.9500526,10.1691726 68.3604095,9.65546846 67.7197152,9.21557604 C66.7174071,8.52765917 65.6980819,7.86037555 64.6538692,7.23776186 C63.7515367,6.69938289 62.8049597,6.23460293 61.8773142,5.73876675 C61.551011,5.56434132 61.232791,5.36800636 60.8920232,5.2282533 C60.4246907,5.03659804 59.9386394,4.89067628 59.4617347,4.72284499 C59.3658007,4.68923619 59.2749719,4.64180098 59.1801015,4.60500147 C58.4051846,4.30571296 57.6304804,4.00621174 56.8545,3.70990122 C56.7119817,3.65544645 56.5647836,3.61311638 56.4188619,3.56865917 C55.6413924,3.33148313 54.8722188,3.06218729 54.0843264,2.86755403 C53.1277518,2.63122885 52.1556491,2.45744156 51.1899279,2.25791589 C49.6571112,1.94139756 48.1159988,1.668911 46.5499988,1.61041467 C45.0890795,1.55574719 43.6253949,1.51830954 42.1640501,1.54362249 C40.9930599,1.56383032 39.8150501,1.62551736 38.6561846,1.78420196 C37.1588912,1.98925819 35.6726589,2.2870577 34.1904682,2.58740978 C33.1590183,2.79650758 32.1262922,3.02708949 31.123346,3.34062983 C30.0906198,3.66310416 29.0787396,4.0651335 28.0855782,4.49630465 C27.4959352,4.75241222 26.8488594,4.81792812 26.2834658,5.16337555 C25.6074609,5.57646601 24.8748741,5.89638778 24.1676002,6.25885232 C24.0018961,6.3439379 23.8415098,6.43987188 23.6764438,6.52644645 C22.9855489,6.888911 22.2667885,7.20670562 21.6088643,7.62107237 C20.6214462,8.24283521 19.6731675,8.92734866 18.7157421,9.59548313 C18.4813313,9.75884743 18.2822311,9.97241222 18.0533509,10.1444978 C17.5377323,10.5318499 16.9814853,10.8717667 16.4996883,11.2961311 C15.6094804,12.0801946 14.7492653,12.899356 13.898835,13.7266005 C13.2917494,14.3168817 12.7080623,14.9329012 12.1386271,15.5593438 C11.7519132,15.9845589 11.4126345,16.4521042 11.0420868,16.8922093 C10.8351161,17.1381066 10.5517812,17.3357178 10.4011797,17.609268 C10.1189083,18.1216958 9.7355978,18.5460601 9.37270782,18.9921213 C8.93387897,19.5315638 8.51376895,20.0852582 8.21958557,20.7227619 C8.14875183,20.8761286 8.05537042,21.0201359 7.96496699,21.1637178 C7.64100367,21.6776347 7.31470049,22.1902753 6.98754645,22.702065 C6.832478,22.9445589 6.64848044,23.1721628 6.52127751,23.4280577 C6.2128423,24.0496078 5.9320599,24.6849844 5.63511125,25.3124905 C5.51918215,25.5575369 5.38240709,25.7927985 5.26860513,26.0386958 C4.80573961,27.0384513 4.28650489,28.0156592 4.03975672,29.102202 C4.0363533,29.1183682 4.02678117,29.1334709 4.02082518,29.1494244 C3.85894988,29.5761286 3.67325061,29.9956005 3.54072983,30.4312386 C3.28377139,31.2761384 3.0457445,32.1274196 2.82048044,32.981466 C2.57437042,33.9157056 2.30273472,34.8473927 2.13171271,35.7960968 C1.93878117,36.8649844 1.80455868,37.9485491 1.71926039,39.0314758 C1.60460758,40.488779 1.56142665,41.9511873 1.4950599,43.2640577 M71.0525171,43.5405858 C71.2016296,40.9639819 70.6917543,38.5996665 70.0670134,36.2712998 C69.7664487,35.1511482 69.485879,34.0101506 68.9617518,32.9438156 C68.2512873,31.4977863 67.5957029,30.0266567 66.6991137,28.6806029 C66.4747005,28.3438768 66.266879,27.9958768 66.0369352,27.6631922 C65.7384976,27.2309575 65.454099,26.7838328 65.1116296,26.3886103 C64.6472751,25.8529966 64.230143,25.2744147 63.6792139,24.8124 C63.4654364,24.6330822 63.3335538,24.3591066 63.142324,24.1485198 C62.673077,23.6318377 62.1521406,23.172801 61.565901,22.7897032 C61.4820917,22.7352484 61.4206174,22.647823 61.3442531,22.5812435 C60.8979792,22.193466 60.4765929,21.770378 59.9973484,21.4287594 C59.2534878,20.898889 58.4162457,20.4894147 57.7166296,19.91062 C56.8830037,19.2210015 55.8792066,18.8783193 54.9402873,18.4403413 C53.7352628,17.8781384 52.5140721,17.3018963 51.1714218,17.0581262 C50.0710526,16.8581751 49.015566,16.435087 47.886055,16.3559575 C47.7518325,16.346598 47.6214389,16.2929941 47.4872164,16.2736372 C46.9333093,16.1930186 46.3806785,16.0736861 45.8240061,16.0498621 C44.7049181,16.0024269 43.5830648,15.9815809 42.4631259,16.0009379 C41.5978056,16.0160406 40.7316345,16.0877252 39.8699303,16.1760015 C39.3649474,16.227691 38.8682604,16.3617007 38.3675318,16.4582729 C38.000813,16.5288939 37.6300526,16.5839868 37.267588,16.6724758 C36.5411699,16.8498792 35.8185807,17.0428108 35.095566,17.2346787 C34.8492433,17.2997692 34.5969645,17.3569892 34.3646809,17.4578156 C33.1675269,17.9776885 31.9756907,18.5103242 30.7823655,19.0395565 C30.5498692,19.1427227 30.3033337,19.225043 30.0912579,19.3609672 C29.4937445,19.7434269 28.8970819,20.1297154 28.3261577,20.5502509 C27.6320721,21.0614024 26.8037641,21.3847276 26.2222042,22.0541384 C26.1339279,22.1556029 26.0203386,22.2362215 25.9141944,22.3210944 C25.3747518,22.7520528 24.8076565,23.1455736 24.3467054,23.6735296 C23.6479401,24.473334 22.8094218,25.1448719 22.1948912,26.0248694 C21.9519719,26.372444 21.6992677,26.7206567 21.4027445,27.0212215 C21.0141161,27.4155932 20.7439694,27.8759061 20.4904144,28.357065 C20.3404511,28.6416763 20.1790012,28.9239477 19.9896858,29.1830333 C19.6601919,29.6329232 19.3241039,30.0745174 19.1296834,30.6058768 C19.0833117,30.7320161 19.0220501,30.8590064 18.9407934,30.9647252 C18.6340599,31.3639892 18.4766516,31.8268548 18.3311553,32.2992924 C18.251813,32.5575271 18.1435416,32.8072533 18.0437787,33.0591066 C17.8200037,33.6242875 17.5909108,34.187554 17.3686247,34.7535858 C17.3128936,34.895466 17.2714144,35.0430895 17.2265318,35.1887985 C16.9910575,35.9481873 16.6898545,36.6943878 16.5354242,37.4697301 C16.1899768,39.2059012 16.0304413,40.9673853 15.9923655,42.7392924 C15.9440795,44.9568352 16.122121,47.1577863 16.5075587,49.3393804 C16.6224242,49.9887961 16.813654,50.6286396 17.0176467,51.257422 C17.2210012,51.8845027 17.4781724,52.4945663 17.7232188,53.1076078 C17.9059401,53.5643046 18.166302,53.9982411 18.2864853,54.4694024 C18.5223851,55.3938572 19.0654438,56.1589892 19.4942751,56.9819795 C19.7346418,57.4429306 20.0615831,57.8581482 20.3400257,58.2997423 C20.4842457,58.5281971 20.5808178,58.7908988 20.7463093,59.0006347 C21.4991039,59.9548694 22.1748961,60.9712166 23.0451088,61.8316445 C23.7436614,62.5223267 24.4158374,63.2400235 25.1175807,63.9275149 C25.4309083,64.2344611 25.7797592,64.5071604 26.1262702,64.7775198 C26.6042384,65.15062 27.0169034,65.6037007 27.5897421,65.8621482 C27.907324,66.0053046 28.1674731,66.2718352 28.4639963,66.4671066 C29.0004609,66.8210626 29.5254389,67.1990553 30.0906198,67.5008963 C30.7623704,67.859532 31.4715587,68.1481848 32.1641553,68.4683193 C32.2256296,68.4966103 32.2817861,68.5374513 32.3438985,68.5642533 C32.9352433,68.8201482 33.5231846,69.084977 34.120698,69.3253438 C34.6869425,69.5533731 35.2719059,69.7156738 35.8734609,69.8394733 C37.0031846,70.071757 38.1171675,70.3804049 39.2481675,70.6065198 C41.0583631,70.9687716 42.8938716,71.0470504 44.7336345,70.9587741 C46.2804902,70.8845369 47.8092653,70.6586347 49.3118765,70.2729844 C49.4926834,70.2264 49.6785954,70.2002362 49.8602531,70.157268 C50.6349572,69.9736958 51.4092359,69.7882093 52.1828765,69.601021 C52.2483924,69.5852802 52.309654,69.5518841 52.3724046,69.5255076 C53.2166663,69.170488 54.064544,68.8235516 54.9037005,68.45662 C55.2753117,68.2941066 55.6150159,68.0511873 55.9947103,67.9156885 C56.7706907,67.6385222 57.4469083,67.1990553 58.1150428,66.7357643 C58.6704389,66.3507521 59.2437029,65.9919037 59.7925049,65.5983829 C60.2481381,65.2720797 60.6856907,64.9198254 61.1194144,64.5645932 C61.551011,64.2110626 61.9789914,63.851576 62.3882531,63.4725198 C62.7360403,63.1506836 63.0578765,62.8005565 63.3852433,62.456598 C63.6400746,62.1885785 63.885121,61.9107741 64.1350599,61.6378621 C64.2261015,61.5385247 64.3277787,61.4479086 64.4092482,61.3413389 C64.8410575,60.7750944 65.2781846,60.2122533 65.6942531,59.6343095 C66.1886002,58.9476689 66.6925196,58.2652826 67.1375171,57.5469477 C67.4929621,56.9732582 67.7492824,56.3393707 68.0792017,55.7486641 C68.667143,54.6961555 69.192121,53.6189721 69.5177861,52.4528743 C69.8689768,51.1940333 70.312698,49.9526347 70.5528521,48.6729477 C70.8783044,46.9397545 71.2354511,45.1950748 71.0525171,43.5405858 M-0.000106356968,43.492087 C0.0947640587,41.7440039 0.151771394,39.9927301 0.298969438,38.2491139 C0.38448044,37.2363829 0.57953912,36.2283315 0.789062347,35.2317667 C1.00900856,34.1864905 1.30297922,33.1567423 1.56865892,32.1212509 C1.77073716,31.3335711 1.96175428,30.542488 2.19084719,29.762466 C2.34783007,29.2281286 2.54586675,28.7040015 2.75390098,28.1866812 C3.01872983,27.5293951 3.31014792,26.8827447 3.5936956,26.2329037 C3.68856601,26.0152973 3.79662469,25.8036469 3.89553667,25.5877423 C4.20567359,24.909823 4.50304768,24.225735 4.82828729,23.5552606 C4.99037531,23.2212998 5.20330196,22.9122264 5.3917665,22.5910284 C5.95843643,21.6265834 6.51638509,20.6566078 7.09475428,19.6991824 C7.28726039,19.3805369 7.5408154,19.0993291 7.74970049,18.7896176 C7.99581051,18.4243878 8.22235086,18.0459697 8.46080318,17.675422 C8.52440465,17.5760846 8.58736797,17.4712166 8.67160269,17.3910235 C9.349522,16.7447985 9.87917971,15.9766885 10.4556345,15.2466543 C10.6653704,14.9814 10.9053117,14.739757 11.1356809,14.4913071 C11.6759743,13.9086836 12.2047812,13.3145736 12.7654951,12.7523707 C13.1958154,12.3209868 13.6665513,11.9298059 14.1213337,11.5226714 C14.9019939,10.8234807 15.6705293,10.1094 16.4713973,9.43360782 C16.8827861,9.08645868 17.3524584,8.80780342 17.7966051,8.49936822 C17.9223191,8.4121555 18.0680281,8.34621418 18.1748105,8.24049535 C18.8348619,7.58746357 19.6514707,7.17139511 20.4393631,6.70746601 C21.1674829,6.27884743 21.8675244,5.80258093 22.595857,5.37460049 C22.9589597,5.16124841 23.3603509,5.01426308 23.7398325,4.82750024 C24.1346296,4.63307971 24.5241088,4.42781076 24.915077,4.22573252 C25.0507885,4.15553692 25.1799059,4.07257848 25.3185954,4.00961516 C25.9358912,3.7294709 26.5453166,3.4286934 27.1768643,3.18513594 C27.8256418,2.93477164 28.4995196,2.7509868 29.1568056,2.5221066 C29.7651675,2.31045623 30.3658716,2.07732176 30.9701919,1.85397213 C31.0340061,1.83036088 31.0969694,1.80292078 31.1624853,1.78611638 C32.2973142,1.494911 33.4257616,1.17413839 34.5699499,0.92632665 C35.2982824,0.768705623 36.0529914,0.738925672 36.7904707,0.618742298 C39.3989817,0.193739853 42.0253606,-0.0523701711 44.6642897,0.0584537897 C46.682945,0.14332665 48.703302,0.310945232 50.693879,0.704253301 C50.8442677,0.733820538 50.9952946,0.772534474 51.1469597,0.776363325 C52.3526222,0.808270416 53.488302,1.17392567 54.6322775,1.49873985 C55.3827323,1.7116665 56.1565856,1.87120196 56.8744951,2.16517262 C58.2082115,2.711422 59.626588,3.02389878 60.9103166,3.71224108 C61.925813,4.25678875 63.0010819,4.68987433 64.0329572,5.20549291 C64.7578863,5.56753203 65.4606932,5.97509193 66.101813,6.47879853 C66.1675416,6.53048802 66.2470966,6.56579853 66.3228227,6.6034489 C67.4689254,7.17160782 68.4816565,7.93716528 69.4826883,8.72186699 C69.9085416,9.05582787 70.3524756,9.36660293 70.7830086,9.69482054 C70.9297812,9.80649535 71.0591112,9.94093056 71.1988643,10.0621775 C71.5443117,10.3616787 71.8852922,10.6667105 72.2388227,10.9562142 C72.750187,11.3752606 73.287077,11.7602729 73.6891064,12.3029061 C73.8779963,12.5577374 74.1168741,12.7906592 74.3742579,12.9761457 C74.8632873,13.3284 75.2342604,13.784246 75.6154438,14.2379648 C76.1268081,14.8471775 76.6545513,15.4425638 77.1757005,16.0436934 C77.1978227,16.0694318 77.2252628,16.0909159 77.2454707,16.1181433 C77.7585367,16.8115907 78.2696883,17.5065271 78.7838178,18.1993364 C78.9246345,18.38929 79.0890623,18.5637154 79.2156271,18.7621775 C79.6599866,19.4586029 80.0354267,20.2077814 80.5444511,20.8520919 C81.1962066,21.6772093 81.5584584,22.6512264 82.0898178,23.5354782 C82.3591137,23.9840919 82.5499181,24.4795027 82.7756076,24.9542802 C82.9715171,25.3665198 83.1804022,25.7730161 83.3575929,26.1929134 C83.6137005,26.799999 83.8510892,27.4153804 84.0878399,28.0305491 C84.3558594,28.7276127 84.6368545,29.4214856 84.8712653,30.1300357 C85.1267347,30.9021873 85.3832677,31.679444 85.5551406,32.4726543 C85.9327078,34.215845 86.3151675,35.9615883 86.5840379,37.7232851 C86.7784584,38.996378 86.8286589,40.2956347 86.8797103,41.5857447 C86.9622433,43.6767227 86.9218276,45.7670626 86.7405954,47.8548499 C86.6078619,49.3831995 86.3085733,50.8802802 85.983121,52.3748083 C85.8671919,52.905955 85.7404144,53.4360381 85.6517127,53.9720773 C85.4004976,55.49362 84.8072384,56.9039134 84.2694976,58.3335638 C84.0555073,58.902999 83.886187,59.4896641 83.6581577,60.0529306 C83.449698,60.5676983 83.1878472,61.0605565 82.9523729,61.5644758 C82.7943264,61.9020528 82.6503191,62.2466494 82.4835513,62.5797594 C82.1419328,63.2621457 81.8096736,63.9502753 81.4352971,64.6143682 C81.0864462,65.2337912 80.6890966,65.8255614 80.3115293,66.4283927 C80.1134927,66.7444856 79.9158814,67.0607912 79.7114633,67.3724171 C79.48939,67.710845 79.2617861,68.0456567 79.0314169,68.3787667 C78.8101944,68.6984758 78.5923753,69.0213756 78.355412,69.3293853 C77.8704242,69.9596567 77.3837347,70.58929 76.8781137,71.2031824 C76.5664878,71.5816005 76.2135954,71.9259844 75.8898447,72.2948303 C75.7335,72.4724465 75.6179963,72.6868621 75.4554829,72.857246 C75.1406663,73.1878034 74.8009621,73.4943242 74.4801895,73.8191384 C74.1468667,74.1569281 73.8292848,74.510246 73.4944731,74.846334 C73.2438961,75.0973364 73.0039548,75.3732264 72.7112604,75.5646689 C72.1116198,75.9569134 71.6138692,76.4589183 71.0859132,76.9315687 C70.7466345,77.2353242 70.360346,77.4863267 69.9991577,77.7664709 C69.5843655,78.0887325 69.190632,78.4405614 68.7583973,78.73751 C68.0891993,79.1976103 67.394901,79.620911 66.7120892,80.0616543 C66.2985733,80.3283976 65.8844193,80.59429 65.474945,80.8676274 C64.6555709,81.4143022 63.7740844,81.8450479 62.8834511,82.2579257 C62.4529181,82.4574513 62.0081333,82.6263462 61.576324,82.823532 C61.2551259,82.9705174 60.9388203,83.1300528 60.6305978,83.3029892 C59.973099,83.6720479 59.2596565,83.882422 58.5432359,84.0989648 C58.0261284,84.2550968 57.5322066,84.4882313 57.0285,84.6881824 C56.9181015,84.7320015 56.8132335,84.7921995 56.7000697,84.8258083 C54.5982433,85.4501237 52.4804633,85.9744636 50.2990819,86.2835369 C48.5439792,86.5319868 46.7899401,86.732576 45.0237763,86.777246 C43.5471161,86.8148963 42.0672653,86.737043 40.5891161,86.7019452 C38.2148032,86.6451506 35.8989866,86.1416567 33.5691308,85.7562191 C32.9197152,85.6487985 32.2868912,85.4288523 31.6547054,85.2342191 C30.8278863,84.9798132 29.9800086,84.7641213 29.1948814,84.4116543 C28.4446394,84.0747154 27.6410061,83.9260284 26.8922531,83.608021 C26.5819034,83.4763511 26.2849548,83.3131995 25.9822628,83.1638743 C25.4351626,82.8939403 24.8891259,82.6227301 24.341813,82.3538597 C24.1131455,82.2417594 23.8908594,82.1056225 23.6500672,82.0309599 C23.0059694,81.8312215 22.4739719,81.4381262 21.9128325,81.089488 C21.1664193,80.6255589 20.3889499,80.2107667 19.6523215,79.7325858 C19.0292824,79.3280039 18.4494242,78.8583315 17.8434022,78.4271604 C17.4707274,78.1619061 17.085077,77.9149452 16.7055954,77.6596885 C16.6496516,77.6218254 16.5888154,77.5886421 16.5392531,77.543334 C16.0502237,77.0987619 15.5667249,76.6478083 15.0740795,76.2068523 C14.6703484,75.8454513 14.2472604,75.505109 13.8486345,75.1377521 C13.3264218,74.6563804 12.8088888,74.1686274 12.3094364,73.6636445 C11.7861601,73.1341995 11.2699034,72.5958205 10.7815122,72.0346812 C10.2943973,71.4746054 9.84535819,70.8813462 9.38015281,70.3023389 C9.28464425,70.1836445 9.20083496,70.0530381 9.09362714,69.946043 C8.69457579,69.5472044 8.38209902,69.0930601 8.10131663,68.6019037 C7.85073961,68.1643511 7.49465648,67.7886983 7.21047066,67.3685883 C6.88799633,66.8916836 6.58041198,66.4035051 6.29027017,65.9063927 C5.74338264,64.9685369 5.19947311,64.028554 4.68321638,63.0738939 C4.45008191,62.6427227 4.28607946,62.1743267 4.09208435,61.7223095 C3.8653313,61.1928645 3.64368337,60.660867 3.41267604,60.1331237 C3.26356357,59.7919306 3.09062714,59.4609477 2.94768337,59.1174147 C2.70710391,58.5394709 2.48141443,57.9553584 2.24976895,57.3735858 C2.23721883,57.3421042 2.22424328,57.3106225 2.21530929,57.2778645 C2.05003056,56.6733315 1.88219927,56.0694367 1.72138753,55.4636274 C1.47293765,54.5285369 1.22576406,53.5928083 0.98646088,52.655378 C0.915201711,52.3769355 0.872871638,52.0908352 0.815013447,51.8087765 C0.254086797,49.0656176 0.0294608802,46.292466 -0.000106356968,43.492087" id="Fill-1" fill="#FFFFFF" mask="url(#mask-2)"></path>
                </g>
                <path d="M57.8531494,29.3260408 C57.404323,29.8018819 56.9859147,30.2662364 56.5443205,30.7071924 C56.1969587,31.0539161 55.8045015,31.3555445 55.462032,31.7060971 C55.0723401,32.1051484 54.716257,32.5369577 54.344433,32.9532389 C54.2653034,33.0417279 54.1914917,33.1406399 54.0966213,33.2087083 C53.4301885,33.6877401 52.9143572,34.3177988 52.3574721,34.9087181 C52.091367,35.1907768 51.7550663,35.4058306 51.4779,35.679168 C50.9471787,36.202657 50.4343254,36.7442267 49.9170051,37.2815421 C49.3777753,37.8414051 48.8447142,38.4070115 48.3033572,38.9645347 C48.1736017,39.0979064 48.0181078,39.2055396 47.8800565,39.3314663 C47.5918291,39.5943807 47.2978584,39.85219 47.0236702,40.1293562 C46.5597411,40.5983905 46.112191,41.0833782 45.6529416,41.5568795 C45.2649513,41.9569944 44.874834,42.3549822 44.4774844,42.7455249 C44.2237166,42.9948257 43.9393181,43.2145592 43.6953352,43.4727939 C43.2097093,43.9871362 42.7425895,44.5187083 42.2688756,45.0445372 C42.261856,45.0521949 42.2724917,45.0758061 42.2846164,45.1581264 C43.2956457,45.2434247 44.3232667,45.1828012 45.3483352,45.1921606 C46.3857411,45.2019455 47.4233597,45.1966276 48.4607655,45.1972658 C49.5154012,45.1979039 50.5698242,45.1981166 51.6242472,45.1981166 C52.6618658,45.1979039 53.6992716,45.1968403 54.7366775,45.1966276 C55.7700418,45.1962022 56.8031934,45.1964149 57.8835675,45.1964149 C57.9007973,45.4312511 57.9252594,45.6120579 57.9254721,45.7928648 C57.9284501,47.8844809 57.9290883,49.9763098 57.9282374,52.0679259 C57.9280247,52.6348086 57.9244086,52.6384247 57.3619929,52.6384247 C52.5659318,52.6375738 47.7698707,52.6339577 42.9738095,52.6341704 C38.6367851,52.6343831 34.2997606,52.6386374 29.9631616,52.6409773 C29.8270247,52.6409773 29.6908878,52.6424663 29.5549636,52.6394883 C29.0689122,52.6284271 29.0429611,52.5997108 29.0429611,52.1108941 C29.043812,42.8939993 29.0444501,33.6771044 29.045301,24.4602095 C29.045301,24.375124 29.0418976,24.2900384 29.0442374,24.2051655 C29.0555112,23.8165372 29.0893328,23.7752707 29.4934892,23.77208 C30.3949709,23.7648477 31.2962399,23.7663367 32.1977215,23.7667621 C33.4563499,23.767613 34.7149782,23.7722927 35.9736066,23.7722927 C36.5621861,23.7722927 36.5836702,23.7844174 36.5840956,24.3606594 C36.58601,26.8432438 36.58601,29.3260408 36.583032,31.8086252 C36.5802667,34.2403709 36.5728218,36.6716912 36.5704819,39.1032242 C36.5702692,39.1804394 36.6034526,39.2576545 36.6406775,39.4227205 C36.8182936,39.2791386 36.9525161,39.1883098 37.0654672,39.0764222 C38.1973181,37.9545689 39.3221494,36.8259088 40.4563401,35.7066081 C41.2153034,34.9576423 41.993411,34.2278208 42.7500345,33.4763024 C43.3390394,32.8911264 43.8997533,32.2778721 44.4870565,31.6909944 C45.2058169,30.9726594 45.9428707,30.2730433 46.6641836,29.5572609 C47.2653132,28.9612364 47.850702,28.3494711 48.4509807,27.7528086 C49.2548267,26.9540677 50.0693083,26.1661753 50.8737924,25.3680726 C51.3060271,24.9392413 51.7278389,24.5004125 52.1517778,24.0632853 C52.3949098,23.8124956 52.4410687,23.8061142 52.6852643,24.0288257 C52.7480149,24.085833 52.8062985,24.1479455 52.8656457,24.2089944 C53.7371347,25.1094125 54.6011787,26.0172756 55.4830907,26.9072707 C55.9487215,27.3771557 56.4571078,27.8047108 56.9242276,28.2731068 C57.2450002,28.594943 57.5279098,28.9542169 57.8531494,29.3260408" id="Fill-4" fill="#FFFFFF"></path>
                <path d="M51.3240227,59.7322005 C51.3627367,59.5750049 51.4144262,59.419511 51.4378247,59.2599756 C51.5701328,58.3689169 51.6879763,57.4755183 51.8260276,56.5855232 C51.9066462,56.0662885 52.01981,55.5521589 52.1106389,55.0344132 C52.1468002,54.8291443 52.2593259,54.7493765 52.4620423,54.7510782 C52.8698149,54.7544817 53.2778002,54.7485257 53.6857856,54.7436333 C53.9084971,54.740868 54.0344237,54.8461614 54.0712232,55.0652567 C54.1724751,55.6683007 54.2826609,56.2698557 54.376255,56.8737506 C54.5189861,57.7969291 54.649167,58.722022 54.790409,59.6454132 C54.8018956,59.7202885 54.8563504,59.7885697 54.8974042,59.8734425 C55.1909494,59.7596406 55.1705289,59.5162958 55.1918002,59.3112396 C55.259656,58.6520391 55.2845435,57.9873081 55.3779249,57.3321491 C55.4874726,56.5595721 55.6516878,55.7946528 55.7908027,55.0263301 C55.8231352,54.8478631 55.9301303,54.7621394 56.1077465,54.7600122 C56.5665704,54.7544817 57.0258198,54.7461858 57.4846438,54.7470367 C57.7026756,54.7474621 57.7879738,54.8708362 57.7475582,55.0822738 C57.5673895,56.0316161 57.3842428,56.980533 57.2072648,57.9305134 C57.1668491,58.1474817 57.1551499,58.3697677 57.1138834,58.5863105 C57.0156095,59.1010782 56.9077636,59.6139315 56.8031083,60.127423 C56.7863039,60.2108068 56.7626927,60.2927017 56.7469518,60.3760856 C56.5867782,61.225665 56.4274555,62.0752445 56.2677073,62.924824 C56.1894286,63.341956 56.1683699,63.364291 55.7361352,63.3687579 C55.243277,63.3736504 54.7497807,63.3749267 54.2569225,63.3655672 C53.8955215,63.3587604 53.8383015,63.3274914 53.7815068,62.9722592 C53.6340961,62.0499315 53.5083822,61.1239878 53.3799029,60.1988949 C53.3190667,59.7611296 53.276524,59.3210244 53.2163259,58.8832592 C53.1918638,58.707132 53.1425142,58.534621 53.1046511,58.3604083 C53.0599812,58.3587066 53.015524,58.3570049 52.9710667,58.3553032 C52.916612,58.553978 52.8393968,58.7494621 52.8115313,58.9519658 C52.6702892,59.9789487 52.5452134,61.0084841 52.4071621,62.0361051 C52.3641939,62.3556015 52.2922966,62.6712689 52.2440105,62.9903399 C52.2044457,63.2524034 52.0678834,63.3751394 51.7981621,63.3710978 C51.271057,63.3634401 50.7435264,63.3593985 50.2168467,63.3715232 C49.9286193,63.3781174 49.7673822,63.2581467 49.7161181,62.9799169 C49.612101,62.4117579 49.5080839,61.843599 49.4049176,61.2752274 C49.1834824,60.0561638 48.9592819,58.8375257 48.7431645,57.6173985 C48.6544628,57.1156064 48.5883088,56.6095599 48.5038614,56.1069169 C48.4345166,55.6925501 48.353898,55.2800978 48.2671108,54.8059584 C48.4677,54.7870269 48.6291499,54.7623521 48.7910252,54.7587359 C49.1649763,54.7500147 49.5402037,54.7687335 49.9124531,54.7429951 C50.1915337,54.7238509 50.3044848,54.8306333 50.362343,55.096313 C50.6556756,56.4425795 50.8686022,57.8009707 51.0309029,59.1682958 C51.0536633,59.3584621 51.1098198,59.5447995 51.1504482,59.7326259 C51.2083064,59.7326259 51.2661645,59.7324132 51.3240227,59.7322005" id="Fill-6" fill="#FFFFFF"></path>
                <path d="M42.8158907,60.3228645 C42.8329078,60.3228645 42.8499249,60.3222264 42.8669421,60.3228645 C43.1194335,60.3360528 43.4227636,60.2692606 43.6082501,60.3875296 C43.7611914,60.4849526 43.7775704,60.8004073 43.8490423,61.0212044 C44.026233,61.5668156 44.3238198,61.8025027 44.887299,61.8341971 C44.9889763,61.8399403 45.0912917,61.8397276 45.1931817,61.8350479 C45.8779078,61.803779 46.1620936,61.3943046 45.9693748,60.7425491 C45.8919469,60.4802729 45.7122037,60.3628548 45.4709861,60.2869159 C44.8079567,60.0780308 44.1551377,59.8331971 43.4840252,59.6560064 C42.9579836,59.5171042 42.6318932,59.1488963 42.3696169,58.7447399 C41.8220912,57.9004782 41.7193504,56.9683658 42.2360325,56.0877301 C42.6510374,55.3806689 43.2421694,54.8144244 44.116211,54.6625467 C44.996634,54.5093927 45.8783333,54.5221555 46.6281499,55.0309672 C47.4432697,55.5842362 47.9676095,56.3674489 47.971013,57.4122998 C47.9718638,57.6518156 47.8474262,57.7490259 47.6234384,57.7486005 C47.2154531,57.7481751 46.8074677,57.7481751 46.3994824,57.7449844 C46.1795362,57.7432826 46.0544604,57.6430944 46.0374433,57.4093218 C46.0261694,57.2580822 46.0023455,57.102801 45.9527831,56.9600699 C45.6871034,56.195576 44.722233,55.9726518 44.1757709,56.5444269 C43.7884188,56.9494342 43.9086022,57.5539672 44.4299641,57.7458352 C44.8751743,57.9096249 45.3280423,58.0559721 45.7845264,58.1848768 C46.6700545,58.4348156 47.363502,58.9427765 47.8723137,59.702378 C47.9548467,59.8259648 48.0137685,59.9778425 48.0405704,60.1244024 C48.3062501,61.5846836 47.7876535,62.489356 46.5849689,63.2493829 C46.5424262,63.2763976 46.4945655,63.2995834 46.445854,63.3119208 C45.3833479,63.5831311 44.3044628,63.6680039 43.3166193,63.1349428 C42.3802526,62.6297472 41.8501694,61.7976103 41.8557,60.6893707 C41.8574017,60.3758303 41.8973919,60.3358401 42.2043381,60.3256298 C42.4079054,60.318823 42.6121108,60.3243535 42.8158907,60.3243535 L42.8158907,60.3228645 Z" id="Fill-8" fill="#FFFFFF"></path>
                <path d="M29.9275746,60.3249491 C30.0122347,60.3249491 30.097533,60.3268636 30.1821932,60.3247364 C30.808423,60.307932 30.808423,60.3075066 30.9139291,60.9477756 C30.989868,61.4091521 31.2827751,61.7275848 31.7373447,61.7965042 C31.9872836,61.8343672 32.2461565,61.8439394 32.4986479,61.8267095 C32.8145281,61.8052254 33.0448973,61.6180372 33.1333863,61.3183232 C33.2240024,61.0115897 33.1959242,60.7027291 32.9159927,60.48491 C32.4741858,60.1418024 31.9343178,60.0426778 31.4121051,59.9003721 C30.8726626,59.7533868 30.3461956,59.6010836 29.9037506,59.2145824 C29.3366553,58.7191716 29.1033081,58.1052792 29.0771443,57.3750323 C29.0367286,56.2484993 29.5797873,55.5044259 30.5352983,54.9683868 C31.6875697,54.3219491 32.799,54.5172205 33.8815012,55.0841032 C34.6868362,55.5057022 35.1499144,56.5807584 35.0056944,57.4767095 C34.9761271,57.6594308 34.8850856,57.7508978 34.7049169,57.7513232 C34.3141614,57.7517487 33.9231932,57.7462181 33.5324377,57.7470689 C33.3037702,57.7474944 33.163379,57.6404993 33.1859267,57.4107682 C33.2286822,56.9787462 32.9404548,56.7162572 32.6975355,56.4444088 C32.4254743,56.1398024 32.0434401,56.1821325 31.6954401,56.2657291 C31.3619046,56.3454968 31.1442983,56.6107511 31.0353888,56.9187609 C30.9135037,57.2646337 31.221088,57.6498587 31.6337531,57.7870592 C32.3248606,58.0170029 33.0193716,58.2426924 33.6919731,58.5198587 C34.8867873,59.0122914 35.4321858,60.2881496 35.1137531,61.537844 C34.7668166,62.8998513 33.72622,63.4154699 32.6820073,63.4784333 C32.2767873,63.5028954 31.8653985,63.4916215 31.4612421,63.4516313 C30.2202689,63.3286826 28.9558973,62.2229956 29.0052469,60.6803941 C29.0146064,60.3840836 29.0537457,60.3370738 29.3668606,60.3277144 C29.5534108,60.3221839 29.740599,60.3266509 29.9275746,60.3266509 L29.9275746,60.3249491 Z" id="Fill-10" fill="#FFFFFF"></path>
                <path d="M41.9702252,54.7622883 C41.7994159,55.1424081 41.6926335,55.4246795 41.549477,55.6873812 C41.3727117,56.0119826 41.1597851,56.3168017 40.9730222,56.636298 C40.7254232,57.0591733 40.4901616,57.4892809 40.2451152,57.9136452 C40.160455,58.0602051 40.0666482,58.2020853 39.9690125,58.3403494 C39.6665333,58.7681171 39.7650198,59.1733372 40.0434623,59.5596257 C40.4308144,60.0963029 40.7994477,60.6385108 41.0223719,61.272611 C41.1044795,61.5057455 41.2901787,61.7005914 41.4144037,61.9207504 C41.6600883,62.3570267 41.8957753,62.7988335 42.156988,63.2768017 C42.015746,63.3174301 41.9253425,63.3644399 41.834301,63.3657161 C41.3418682,63.3733738 40.8487973,63.3578457 40.3565773,63.3744374 C40.0813254,63.3837968 39.9056237,63.272122 39.7818242,63.0411147 C39.4374403,62.3989313 39.0934819,61.7565352 38.7422912,61.1177553 C38.6895381,61.0218213 38.600411,60.9458824 38.528301,60.8603714 C38.436834,60.9448188 38.3168633,61.0128873 38.2587924,61.1160535 C37.8854795,61.7778066 37.5336506,62.4514716 37.1543817,63.1098213 C37.0888658,63.2236232 36.9299685,63.3497626 36.8091469,63.3548677 C36.2186531,63.3801807 35.6264575,63.3663543 35.0714868,63.3663543 C34.9036555,63.1383249 35.0225626,62.985809 35.0974379,62.8454178 C35.2486775,62.5625083 35.4182105,62.2887455 35.5892325,62.0168971 C35.9487191,61.4455474 36.3224575,60.8829191 36.6740736,60.306677 C36.8746628,59.9776086 37.052279,59.6332247 37.2230883,59.2871391 C37.3315724,59.0671929 37.3528438,58.839589 37.217345,58.6060291 C36.9633645,58.1676257 36.7349098,57.7141196 36.4796531,57.2763543 C36.080389,56.5905645 35.6668731,55.9128579 35.2612276,55.2306844 C35.1942227,55.117946 35.13679,54.9992516 35.0472374,54.8314203 C35.2018804,54.7954716 35.3065357,54.7512271 35.4118291,54.7499509 C35.8872447,54.744633 36.3643621,54.7763274 36.8378633,54.7452711 C37.2081983,54.7212345 37.3951738,54.8843861 37.544499,55.1940976 C37.7869929,55.6963152 38.0547998,56.1868335 38.3240956,56.6754374 C38.3855699,56.7873249 38.4968193,56.8717724 38.6382741,57.0270535 C38.7582447,56.825188 38.853966,56.6767137 38.9371372,56.5216452 C39.1928193,56.0462296 39.4289318,55.5595401 39.7056726,55.0966746 C39.791609,54.95288 39.977521,54.7871758 40.1270589,54.777391 C40.6975577,54.740166 41.2716726,54.7622883 41.9702252,54.7622883" id="Fill-12" fill="#FFFFFF"></path>
                <path d="M57.3836685,63.2726112 C57.1837174,63.2670807 57.057578,63.0926553 57.0805511,62.8401638 C57.0969301,62.6627604 57.1543628,62.5027995 57.3711183,62.5059902 C57.5327809,62.5083301 57.7263506,62.750824 57.7331575,62.9335452 C57.740177,63.1290293 57.5863848,63.2781418 57.3836685,63.2726112" id="Fill-14" fill="#FFFFFF"></path>
                <path d="M9.33773765,30.2537714 C9.41963252,30.4088399 9.4392022,30.4977543 9.49450782,30.5417861 C9.79656161,30.7815147 10.1020188,31.0182653 10.4174736,31.2401259 C10.6708159,31.4183802 10.89608,31.341165 11.0286007,31.0544267 C11.2298281,30.6192139 11.1111337,30.390121 10.6352927,30.3199254 C10.4023709,30.2854658 10.1662584,30.2690868 9.93099682,30.2556858 C9.75742225,30.2456883 9.58278411,30.2537714 9.33773765,30.2537714 M8.47050293,35.9991748 C8.49453961,35.4076174 8.25204572,35.1451284 7.75706039,35.1278985 C7.27441247,35.1108814 6.99320465,35.3140232 6.86663985,35.7709328 C6.83515819,35.8847347 6.81261051,36.0015147 6.77262029,36.1121259 C6.68242958,36.3631284 6.78814841,36.4967127 7.02447359,36.5622286 C7.34822421,36.6522066 7.67261296,36.741121 7.9953,36.8353533 C8.17674499,36.8885318 8.30267164,36.8247176 8.34563985,36.6505049 C8.40605061,36.4058839 8.44157384,36.1550941 8.47050293,35.9991748 M5.21491614,37.7164144 C5.28107017,37.3667127 5.32510196,37.0840159 5.38870342,36.8059988 C5.50973765,36.2761284 5.6173709,35.7413655 5.77775721,35.2231944 C5.8919846,34.8543484 6.07172787,34.5033704 6.24657873,34.1566467 C6.31209462,34.0264658 6.43163985,33.9094731 6.5528868,33.8235367 C7.42777922,33.2030501 8.8393489,33.5861479 9.29051516,34.5584633 C9.40431711,34.8035098 9.52811663,34.8641333 9.7108379,34.6871553 C10.0175714,34.3899939 10.3781215,34.3836125 10.7544125,34.4063729 C11.0426399,34.4238154 11.3291655,34.4691235 11.6176056,34.4810355 C11.7928819,34.4882677 11.9698599,34.4555098 12.1870408,34.4374291 C12.0530311,33.991368 11.70652,33.8177934 11.4297792,33.650813 C10.4825641,33.0786125 9.69233178,32.310077 8.81275966,31.6553435 C8.32415575,31.2920281 7.83852983,30.9248839 7.34375721,30.5702897 C7.1527401,30.4330892 7.14252983,30.2954633 7.2367621,30.0918961 C7.40033912,29.7381528 7.54455917,29.374412 7.67835623,29.0083313 C7.76812152,28.7632848 7.90489658,28.6639474 8.17653227,28.6969181 C8.88401883,28.7826418 9.59469609,28.8417763 10.3036716,28.9151626 C11.5691068,29.0459817 12.8343293,29.1789279 14.0995518,29.3142139 C14.1623024,29.3208081 14.2216496,29.3569694 14.350767,29.4048301 C14.2046325,29.7792066 14.0706227,30.1372042 13.9242756,30.4898839 C13.8502511,30.6694144 13.6968844,30.7300379 13.5079944,30.7125954 C13.2710311,30.6906858 13.0334296,30.6772848 12.7973171,30.6489939 C12.5633318,30.6213411 12.4167719,30.680901 12.3453,30.935945 C12.2446863,31.2941553 12.1045078,31.6413044 11.9773049,31.991857 C11.9109381,32.1756418 11.9536936,32.3192237 12.1042951,32.4436614 C12.2989284,32.6048985 12.4761191,32.7886834 12.6792609,32.9377958 C12.853899,33.0658496 12.8906985,33.2085807 12.7681753,33.3691797 C12.4235787,33.8207714 12.3216888,34.3446858 12.2714883,34.8911479 C12.2544711,35.0759963 12.2059724,35.2587176 12.1617279,35.4401626 C12.0215494,36.0149156 12.019635,36.0212971 11.4102095,36.0047054 C11.1566545,35.9976858 10.9033122,35.9606736 10.6510335,35.9279156 C9.93993081,35.8362359 9.559811,36.1865758 9.61213863,36.8868301 C9.62660318,37.0795489 9.76295281,37.1408105 9.91610685,37.1786736 C10.3600408,37.2880086 10.8041875,37.3988325 11.2510995,37.4947665 C11.6152658,37.5728325 11.6471729,37.5945293 11.6054809,37.9629499 C11.5752756,38.2328839 11.535498,38.5030306 11.4770017,38.7678594 C11.4070188,39.0848032 11.3232095,39.1371308 11.0132853,39.0677861 C10.335366,38.9154829 9.66085012,38.749566 8.98335623,38.5961993 C8.32202861,38.4466614 7.65729756,38.3124389 6.99660807,38.1590721 C6.42121687,38.0254878 5.85007995,37.8748863 5.21491614,37.7164144" id="Fill-16" fill="#FFFFFF"></path>
                <path d="M78.5350064,38.8769817 C78.6826298,39.1239425 78.867691,39.0635318 79.0255247,39.0637445 C79.8072484,39.0648081 80.5893976,39.0569377 81.371334,39.0539597 C81.8354758,39.0522579 81.8850381,39.0892702 81.9992655,39.5391601 C82.0577619,39.7691039 82.1056225,40.001813 82.1536958,40.2340966 C82.1596518,40.2632384 82.1373169,40.2981235 82.1092386,40.3963973 C81.9737399,40.4080966 81.813779,40.4374511 81.6546689,40.4336222 C79.8540455,40.3885269 78.0536347,40.3402408 76.253224,40.2889768 C75.786955,40.2755758 75.7476029,40.2313313 75.6846396,39.7616589 C75.6618792,39.5934022 75.6363535,39.4251455 75.6046592,39.2583778 C75.5193609,38.8129548 75.5287203,38.7725391 75.9209648,38.5840746 C76.118576,38.4889914 76.3344807,38.4326222 76.5410259,38.3549817 C76.9202949,38.2122506 77.2970112,38.0612237 77.67862,37.9246614 C77.8694244,37.8565929 78.0723535,37.8219205 78.2642215,37.7555538 C78.475021,37.6823802 78.7275125,37.6717445 78.9017252,37.3737323 C78.6962435,37.363522 78.5526616,37.3496956 78.4090797,37.350121 C77.5252533,37.3524609 76.6412142,37.3609694 75.7571751,37.3616076 C75.2660186,37.362033 75.2336861,37.3348056 75.1622142,36.8704511 C75.1205222,36.6017934 75.1049941,36.3288814 75.0601115,36.0610746 C75.0141653,35.7866736 75.1358377,35.6645758 75.3868401,35.5818301 C76.0471042,35.3637983 76.7018377,35.1293875 77.3538059,34.8881699 C78.0057741,34.6469523 78.6539134,34.3955244 79.2990748,34.1368643 C79.7068474,33.9735 80.1039844,33.7839719 80.510268,33.616566 C80.6302386,33.5670037 80.7642484,33.5527518 80.9429281,33.510209 C81.0539648,33.948187 81.1605345,34.3529817 81.257532,34.7601161 C81.3013511,34.9445391 81.1966958,35.0500452 81.0303535,35.0998203 C80.7376592,35.1874584 80.4394342,35.2589303 80.150356,35.3569914 C79.5237007,35.5694927 78.9012998,35.7932677 78.2786861,36.0170428 C78.2216787,36.0374633 78.1770088,36.09128 78.1204269,36.1344609 C78.2472044,36.3480257 78.4305638,36.2814462 78.5879721,36.2799572 C79.4037301,36.2720868 80.2192753,36.2550697 81.0350333,36.2482628 C81.4451457,36.2448594 81.4819452,36.2799572 81.5595858,36.7000672 C81.599576,36.9172482 81.6155296,37.1391088 81.6616885,37.3548007 C81.708911,37.5747469 81.6504147,37.7119474 81.4281286,37.7863973 C80.945268,37.9476345 80.4692142,38.1288667 79.9850773,38.2856369 C79.4898792,38.4458105 79.026801,38.6706491 78.5350064,38.8769817" id="Fill-18" fill="#FFFFFF"></path>
                <path d="M73.7572386,24.8099325 C74.0809892,24.6133848 74.4109086,24.4261966 74.7272142,24.2179496 C75.1379648,23.9473775 75.5293584,23.6470254 75.9447888,23.3845364 C76.2606689,23.1850108 76.2853438,23.2047932 76.5397496,23.4864264 C76.56251,23.5115267 76.5846323,23.5374778 76.605691,23.5642797 C77.2693584,24.4085413 77.0368621,24.4447027 76.4425394,24.8109961 C75.5338254,25.3710719 74.6534024,25.9773066 73.7578768,26.5588665 C73.1218621,26.971957 72.4803169,27.3763262 71.8364318,27.7879276 C71.5103413,27.5554313 71.379735,27.2412528 71.2176469,26.9536636 C71.189356,26.9036758 71.1950993,26.8136978 71.2197741,26.7575413 C71.3967521,26.3565756 71.5735174,25.9547589 71.7679379,25.562089 C71.9938401,25.1066685 72.2376103,24.6599692 72.4737227,24.2096538 C72.5598719,24.0445878 72.6530406,23.8827125 72.7289795,23.7131795 C72.7793927,23.6008665 72.8053438,23.4774924 72.8544807,23.3205095 C72.4911653,23.2951966 72.2767496,23.465155 72.0625467,23.6161819 C71.4407839,24.054798 70.8268914,24.5042626 70.2064049,24.9447932 C70.1283389,25.0000988 70.0302778,25.0264753 69.8830797,25.0926293 C69.6971677,24.7314411 69.5018963,24.3979056 69.3521457,24.0452259 C69.2540846,23.8142186 69.369801,23.6483017 69.6593046,23.4808958 C70.0985589,23.2273408 70.5469599,22.9878249 70.9726005,22.7132112 C71.3837765,22.4481697 71.7709159,22.1463286 72.168691,21.8608665 C72.2373976,21.8115169 72.3003609,21.7481281 72.3765125,21.7157956 C73.1131408,21.4014044 73.7351164,20.9051428 74.4017619,20.426111 C74.771246,20.7241232 74.9869379,21.125089 75.1960357,21.5222259 C75.2462362,21.6177345 75.2034807,21.7959888 75.1468988,21.9076636 C74.9180186,22.3601061 74.6740357,22.8055291 74.4223951,23.2458469 C74.2043633,23.6276685 73.9625076,23.9958763 73.7442631,24.3774851 C73.6902337,24.4723555 73.6866176,24.5959423 73.6598156,24.7063408 C73.6921482,24.7408005 73.7249061,24.7752601 73.7572386,24.8099325" id="Fill-20" fill="#FFFFFF"></path>
                <path d="M8.59864181,51.7554279 C7.62037042,51.7013985 6.80120905,52.2353105 5.84080562,52.2874254 C5.73040709,51.9447433 5.60894743,51.5980196 5.50875917,51.2453399 C5.46238753,51.0817628 5.57725306,50.9962518 5.72360024,50.9558362 C6.2632555,50.8073619 6.8035489,50.6605892 7.34320416,50.5121149 C7.93220905,50.3502396 8.51717237,50.1717726 9.11064425,50.0286161 C9.88449756,49.8422787 10.664945,49.6833814 11.4994218,49.5002347 C11.6187543,49.7756993 11.7623362,50.0422298 11.8442311,50.3264156 C11.878478,50.4448973 11.8244487,50.6435721 11.7365978,50.7326993 C11.3807274,51.0936748 10.9948643,51.4246577 10.6228276,51.769467 C10.5122164,51.8719951 10.4116027,51.9851589 10.3048203,52.0917286 C10.0901919,52.3057188 9.87322372,52.5175819 9.6592335,52.732423 C9.46268582,52.9298215 9.26911614,53.1297726 9.10553912,53.3780098 C10.2250526,53.347379 11.2162995,52.8002787 12.3317714,52.7111516 C12.4496149,53.1029707 12.5642677,53.4833032 12.686791,53.8908631 C12.6502042,53.9238337 12.6091504,53.9906259 12.553632,54.0065795 C11.9348472,54.1829193 11.3130844,54.3486235 10.6936614,54.5228362 C9.90917237,54.7434205 9.12595966,54.9693227 8.34232152,55.1924597 C7.86882029,55.3273203 7.39553178,55.4615428 6.92181785,55.5955526 C6.72101589,55.6523472 6.59274939,55.5800244 6.53616748,55.3783716 C6.45299633,55.0839756 6.38258802,54.7853252 6.28048533,54.4979487 C6.18348778,54.2254621 6.2815489,54.04189 6.48405257,53.8751222 C6.96606235,53.4777726 7.46062225,53.0936112 7.91902078,52.6700978 C8.18427506,52.4252641 8.46165403,52.1661785 8.59864181,51.7554279" id="Fill-22" fill="#FFFFFF"></path>
                <path d="M35.3287218,9.01383814 C35.4046606,9.47478924 35.4686875,9.93850562 35.5603672,10.396266 C35.6535359,10.8614714 35.7849932,11.3190191 35.8798636,11.7840117 C35.9468685,12.1118039 35.9062401,12.1613663 35.5920616,12.2634689 C35.3659467,12.3368553 35.1372792,12.4025839 34.9094626,12.4717159 C34.7010029,12.5348919 34.5880518,12.4542733 34.5461472,12.2436866 C34.3844846,11.4296303 34.2187804,10.6162122 34.0554161,9.80258142 C34.0420152,9.73600196 34.0394626,9.66686993 34.0230836,9.60114132 C33.7910127,8.66477457 33.5638342,7.72734425 33.3211276,6.79353007 C33.2198758,6.40298729 33.2215775,6.38043961 33.6178636,6.26706308 C33.8626973,6.1970802 34.1066802,6.12284303 34.3489614,6.04392616 C34.5899663,5.96500929 34.7560958,6.00840293 34.9001032,6.24855697 C35.0462377,6.49211443 35.2472523,6.70631736 35.4435873,6.91520244 C35.9170885,7.41933447 36.4620616,7.86092861 36.7675188,8.50779169 C36.8045311,8.58649584 36.9349247,8.62138093 37.0836117,8.7156132 C37.0836117,8.53267922 37.0980763,8.43504352 37.0812719,8.3431511 C36.9898049,7.84412421 36.8864259,7.34722445 36.7953844,6.84819756 C36.7402914,6.54784548 36.6996631,6.24494083 36.6526533,5.94331247 C36.6020274,5.61956186 36.6430812,5.55872567 36.9674699,5.49342249 C37.1672083,5.45300685 37.3714137,5.43173545 37.5677487,5.38004597 C37.8247071,5.31219022 37.9559516,5.41386748 38.0095555,5.65699951 C38.031465,5.75654963 38.0637976,5.85397262 38.0833672,5.95373545 C38.3949932,7.55313154 38.7053428,9.15252763 39.0154797,10.7521364 C39.0250518,10.8021242 39.0386655,10.8533883 39.036113,10.903376 C39.024201,11.1282147 39.3009418,11.4007012 38.9308196,11.5678944 C38.3994601,11.8080484 37.9944528,11.7608259 37.7387707,11.4289922 C37.6975042,11.3751756 37.6704895,11.3056181 37.6196509,11.2645643 C36.9000396,10.6823663 36.4369614,9.87788215 35.8249834,9.20336626 C35.7245824,9.09275501 35.5733428,9.02808998 35.4457144,8.94236626 C35.4065751,8.96619022 35.3678611,8.99001418 35.3287218,9.01383814" id="Fill-24" fill="#FFFFFF"></path>
                <path d="M39.7381753,5.11021834 C40.1406301,5.09936993 40.5581875,5.07554597 40.9751068,5.0868198 C41.0680628,5.08915966 41.1850555,5.19764377 41.2433391,5.28783447 C41.4273367,5.57159487 41.586234,5.87173423 41.760234,6.16251418 C41.8989235,6.3947978 42.0444198,6.62325257 42.1888526,6.85213276 C42.4373024,7.24629169 42.6876667,7.63938704 43.0329015,8.03056797 C43.0497059,7.91591516 43.0841655,7.80083692 43.0807621,7.68703496 C43.0556619,6.8893577 43.0214149,6.09210587 42.9941875,5.29464132 C42.9920604,5.23040171 43.0207768,5.16531125 43.045877,5.05150929 C43.4472682,5.0349176 43.848234,5.00449951 44.248987,5.00747751 C44.4502144,5.00875379 44.4638281,5.18998606 44.4682951,5.34803252 C44.4836105,5.8574824 44.4976496,6.36671956 44.5125396,6.87616944 C44.5506154,8.16627946 44.5884785,9.45638949 44.6276178,10.7464995 C44.641657,11.2095778 44.6010286,11.1983039 44.1645396,11.2672232 C43.5042756,11.3712403 43.1800995,11.0772697 42.9127181,10.513365 C42.6468257,9.95286381 42.2635152,9.44830636 41.937212,8.91567066 C41.8400017,8.75698606 41.7698061,8.58149707 41.6713196,8.42387604 C41.5887866,8.29178068 41.4830677,8.17436259 41.3864956,8.04907408 C41.1242193,8.21307653 41.1935641,8.41728191 41.1982438,8.59043105 C41.2186643,9.33726968 41.2499333,10.0838956 41.2803513,10.8303088 C41.3003465,11.3214653 41.2729064,11.3580521 40.8087645,11.4152721 C39.9706716,11.5186511 39.925789,11.4610056 39.8994125,10.6135533 C39.8630384,9.44298851 39.7834834,8.27412543 39.7424296,7.10377335 C39.7196692,6.46392983 39.7381753,5.82259731 39.7381753,5.11021834" id="Fill-26" fill="#FFFFFF"></path>
                <path d="M77.8170968,56.3604506 C78.4760846,56.3687465 78.8294024,56.0662672 79.0121237,55.4655631 C79.086999,55.2207293 79.0225467,55.0714042 78.7874978,54.9854677 C78.4686396,54.8684751 78.1514831,54.7468027 77.8311359,54.6336389 C77.1919306,54.4081621 76.549109,54.1916193 75.9116054,53.9614628 C75.7056983,53.8872257 75.5555222,53.9112623 75.4304465,54.1027049 C74.9586469,54.8250814 75.3234513,55.6859347 76.17218,55.8782281 C76.4999721,55.952678 76.8143633,56.0845606 77.1379012,56.1802819 C77.3974122,56.2572844 77.6616029,56.3196095 77.8170968,56.3604506 M74.9001506,51.9340863 C75.3915198,52.118722 75.894801,52.3059103 76.3961677,52.4977782 C76.506779,52.5401083 76.6076054,52.6090276 76.7192802,52.6475289 C77.6813853,52.9800007 78.6428523,53.3145998 79.6096372,53.6336707 C79.8659575,53.7183308 80.1420601,53.7406658 80.403911,53.8106487 C80.8163633,53.9206218 80.8731579,54.0584604 80.6821408,54.4256046 C80.6351311,54.5160081 80.5640846,54.6015191 80.5453658,54.6972403 C80.3881702,55.5051279 80.0040088,56.2230374 79.6679208,56.9613675 C79.4851995,57.3631841 79.1929306,57.5805778 78.771757,57.7073553 C77.8434733,57.9866487 76.9207203,57.8281768 76.062845,57.5480325 C75.2732509,57.2904359 74.5534269,56.8290594 74.0809892,56.0460594 C73.7074636,55.4274873 73.7914856,54.8346535 73.9812264,54.2339494 C74.2098939,53.5085949 74.5064171,52.804299 74.7765638,52.09192 C74.7933682,52.0472501 74.8371873,52.0127905 74.9001506,51.9340863" id="Fill-28" fill="#FFFFFF"></path>
                <path d="M80.5011425,49.5759396 C80.473277,49.32281 80.3637293,49.2041156 80.1384653,49.177101 C79.9699958,49.1571059 79.7987611,49.1451939 79.6347587,49.104991 C78.7626315,48.8916389 78.7977293,49.0245851 78.7398711,49.8635289 C78.736255,49.9139421 78.745189,49.9654188 78.7443381,50.0160447 C78.7383822,50.4029714 79.013634,50.52592 79.3133479,50.6344042 C79.6228467,50.7465044 79.9189445,50.6814139 80.0963479,50.4380692 C80.27992,50.1860032 80.3701108,49.8660814 80.5011425,49.5759396 M81.89059,47.8891181 C81.8371988,48.4064384 81.8067807,48.8775998 81.7357342,49.3425924 C81.6510741,49.8960741 81.5610961,50.4516829 81.4202795,50.9926144 C81.2247954,51.7428565 80.632387,52.0936218 79.9302183,52.196788 C79.0514971,52.3259054 78.3397562,51.9821597 77.8492379,51.2217073 C77.8332844,51.1970325 77.7939323,51.1874604 77.7339469,51.1523626 C77.2846951,51.6014017 76.7150472,51.5735362 76.1309347,51.499299 C75.8122892,51.4590961 75.4898149,51.4476095 75.1062917,51.4184677 C75.0346071,50.9726193 75.1507489,50.5305998 75.2422159,50.0945362 C75.259233,50.0141303 75.4500374,49.9277685 75.5663919,49.9186218 C75.8359005,49.8975631 76.1094506,49.9190472 76.381299,49.928832 C76.5170105,49.9337244 76.6520839,49.9594628 76.7875826,49.9607391 C77.3938174,49.966057 77.7588345,49.502766 77.6190814,48.9165264 C77.5746242,48.7310399 77.4350839,48.6899861 77.2770374,48.6678638 C76.856502,48.6089421 76.4340521,48.5604433 76.0156438,48.4881205 C75.5619249,48.4096291 75.5387391,48.3609176 75.6097856,47.9163455 C75.6472232,47.6815093 75.6767905,47.4453968 75.7035924,47.2092844 C75.7276291,47.0014628 75.8363259,46.8995729 76.0449983,46.93148 C76.4812746,46.9984848 76.9175509,47.066766 77.3519127,47.1458956 C77.6852355,47.2065191 78.0140912,47.2896902 78.3465631,47.3541425 C78.8632452,47.4543308 79.3792892,47.5600496 79.8991621,47.6389665 C80.3354384,47.7051205 80.7772452,47.7325606 81.2154359,47.7840374 C81.4285753,47.8089249 81.640013,47.8495533 81.89059,47.8891181" id="Fill-30" fill="#FFFFFF"></path>
                <path d="M49.1083944,7.91704254 C49.1083944,7.81685428 49.1200936,7.59605721 49.1058418,7.37674914 C49.0754237,6.9013335 48.8635606,6.66904988 48.4017587,6.58077359 C48.0082379,6.50547286 47.6617269,6.66904988 47.4779421,7.03789584 C47.0546413,7.88747531 47.0571939,8.80895208 47.0867611,9.72064401 C47.101013,10.1569203 47.4051939,10.3955853 47.8121156,10.4466367 C48.2754066,10.5049203 48.4981181,10.3985633 48.7042379,9.96420147 C48.8188907,9.72192029 48.9135484,9.46155844 48.9620472,9.19906944 C49.0326682,8.81682249 49.0533015,8.42542885 49.1083944,7.91704254 M50.7199152,8.05785917 C50.7828785,8.84319902 50.5142208,9.62704988 50.2338638,10.3840988 C50.0117905,10.9833139 49.5029787,11.4195902 48.8824922,11.6116709 C47.8418956,11.9335071 46.9065924,11.6680401 46.0955142,10.9548103 C46.0083015,10.8782333 45.9210888,10.7814484 45.880035,10.6759423 C45.6324359,10.0401403 45.412277,9.38966112 45.5311841,8.69600098 C45.6451988,8.02893007 45.701568,7.32463423 45.9661841,6.71605966 C46.6885606,5.05476381 48.2279714,4.64677848 49.7293064,5.68673692 C50.5167733,6.23234817 50.7613944,7.07341907 50.7199152,8.05785917" id="Fill-32" fill="#FFFFFF"></path>
                <path d="M67.7493249,20.1817452 C67.7574081,20.2864005 67.7552809,20.3725496 67.7716599,20.4550826 C67.857809,20.8858284 68.4570242,21.2982807 68.7997064,21.1325765 C69.0709166,21.0015447 69.3325548,20.8269066 69.5548408,20.6241902 C70.0179191,20.2017403 70.4488775,19.7444054 70.8991929,19.3077037 C71.3156868,18.9039726 71.2163494,18.1935081 70.7005181,17.9348479 C70.3097626,17.7387257 69.8905034,17.8265765 69.5344203,18.1503271 C69.083254,18.5604396 68.6246428,18.9628944 68.1577357,19.3547134 C67.8880144,19.5806156 67.8067577,19.8801169 67.7493249,20.1817452 M68.7982174,22.5303198 C68.1134912,22.5615888 67.5883005,22.2805936 67.1645743,21.7532758 C66.8806012,21.3999579 66.5425988,21.0968406 66.4153958,20.6303589 C66.294787,20.1883394 66.2935108,19.781843 66.4613421,19.3428015 C66.69788,18.7250802 67.0962932,18.208398 67.5208702,17.7444689 C67.8977993,17.3326548 68.4444741,17.0735692 68.9243567,16.7596034 C69.0496452,16.6777086 69.2081171,16.648354 69.347232,16.5849653 C70.1121513,16.2365399 70.9015328,16.3741658 71.5005352,16.9618944 C71.609232,17.0686768 71.7253738,17.1682269 71.8349215,17.2745839 C72.6383421,18.0533296 72.7259802,19.1881584 72.1444203,20.1492 C71.5994472,21.0504689 70.838144,21.689887 69.9581465,22.2210337 C69.5999362,22.4371511 69.2166257,22.5562709 68.7982174,22.5303198" id="Fill-34" fill="#FFFFFF"></path>
                <path d="M75.9757812,31.0598509 C76.0374682,31.2897946 76.0619303,31.4378435 76.1165978,31.5737677 C76.2550746,31.9183643 76.3812139,31.9570782 76.6922017,31.7692518 C76.9532017,31.6116308 77.216967,31.4589022 77.4722237,31.2925599 C77.6189963,31.1970513 77.8183093,31.1208998 77.7319474,30.8237384 C77.1735733,30.8988264 76.6166883,30.9737017 75.9757812,31.0598509 M74.8326565,35.0199462 C74.6384487,34.5766504 74.4597689,34.182066 74.2932139,33.7825892 C74.2111064,33.5858289 74.316187,33.4769193 74.4895489,33.3805599 C74.7099205,33.2580367 74.925187,33.1167946 75.1145024,32.9515159 C75.2023533,32.8745134 75.2914804,32.7028533 75.2642531,32.6069193 C75.1536418,32.218291 75.0117616,31.8366822 74.8543533,31.4637946 C74.7441675,31.20322 74.5340061,31.1136675 74.2347176,31.1383423 C73.394923,31.207687 73.393434,31.1951369 73.0820208,30.4093716 C73.0384144,30.2989731 72.9992751,30.1866601 72.9654535,30.0728582 C72.9516271,30.0266993 72.9582213,29.9741589 72.9541797,29.8958802 C73.0224609,29.8643985 73.0928692,29.8069658 73.1671064,29.8018606 C75.130456,29.6682763 77.0942311,29.5370318 79.0582188,29.4123814 C79.543632,29.3815379 79.5298056,29.3960024 79.647011,29.8858826 C79.7174193,30.1802787 79.8305831,30.4661663 79.9460868,30.7471614 C80.0426589,30.9819976 80.0352139,31.1506797 79.803143,31.3131932 C79.2649768,31.6907604 78.7076663,32.0530122 78.2248056,32.4943936 C77.5681577,33.0944597 76.7840941,33.5018068 76.0857543,34.0342298 C75.6726638,34.3492592 75.2689328,34.6759878 74.8326565,35.0199462" id="Fill-36" fill="#FFFFFF"></path>
                <path d="M80.0491254,43.8423205 C80.0104115,43.7419196 80.0078589,43.7157557 79.9984995,43.7129905 C79.5164897,43.571323 79.0366071,43.4222105 78.5492795,43.3030907 C78.4827,43.2869244 78.325079,43.4079587 78.3044457,43.4896408 C78.2638174,43.6487509 78.2633919,43.8310467 78.3004042,43.991433 C78.3203993,44.078433 78.4593015,44.2103156 78.5303479,44.2018071 C79.0425631,44.14012 79.5707318,44.1214012 80.0491254,43.8423205 M75.7725117,46.4629562 C75.7944213,45.9626531 75.7978247,45.5774281 75.8376022,45.196032 C75.847387,45.1022252 75.9601254,44.9914012 76.0539323,44.9405626 C76.2158076,44.8522863 76.3966144,44.7929391 76.5752941,44.7421005 C77.0864457,44.5966042 77.0866584,44.6006457 77.0838932,44.0480149 C77.0826169,43.7591494 77.0804897,43.4700711 77.0885729,43.1816311 C77.0953797,42.9416897 77.0024237,42.7947044 76.7558883,42.7519489 C75.6453088,42.5588046 75.8835484,42.3614061 75.8722746,41.5107631 C75.8709983,41.4122765 75.8984384,41.3135773 75.9224751,41.1463841 C76.1477391,41.1840345 76.3589641,41.2016897 76.5604042,41.2563572 C77.4123235,41.4871518 78.2663699,41.7134795 79.1106315,41.971076 C80.035299,42.2533474 80.9486927,42.5717802 81.869744,42.8661763 C82.0803308,42.9336066 82.1711597,43.0510247 82.1647782,43.2737362 C82.1535044,43.6810834 82.1558443,44.0890687 82.1600985,44.4968413 C82.1626511,44.7333792 82.0620374,44.8841934 81.8323064,44.9471567 C81.7338198,44.9739587 81.6376731,45.0088438 81.5387611,45.0328804 C80.3360765,45.3257875 79.1319029,45.6123132 77.93092,45.9118144 C77.5378247,46.0100883 77.1555778,46.1506922 76.7637587,46.2542839 C76.4731914,46.3310736 76.1753919,46.3795724 75.7725117,46.4629562" id="Fill-38" fill="#FFFFFF"></path>
                <path d="M14.4283438,23.8628875 C14.8965271,23.9230856 15.1709281,24.2689584 15.4419257,24.5388924 C15.8596958,24.9553863 16.1902533,25.4507971 16.1268645,26.1197824 C16.0819819,26.5934963 15.9849844,27.0182861 15.6557032,27.3775599 C15.2332533,27.8382983 14.876532,28.3924181 14.173087,28.4530416 C13.4547521,28.515154 12.7579012,28.4949462 12.129757,28.0361222 C11.750488,27.758956 11.3018743,27.5787873 10.90729,27.3197017 C10.6875565,27.1754817 10.4765443,26.9853154 10.3306225,26.7689853 C10.1074856,26.4380024 9.82053447,26.1402029 9.78458582,25.6952054 C9.73289633,25.0553619 9.75140244,24.4625281 10.137691,23.8939438 C10.3625296,23.5633863 10.5675858,23.2668631 10.9311139,23.072868 C11.560109,22.7369927 12.1767667,22.6578631 12.8276714,23.0001198 C13.0212411,23.1017971 13.2439526,23.1466797 13.44518,23.2360196 C13.6051408,23.3068533 13.6791653,23.4374597 13.5851457,23.6097579 C13.4475198,23.8624621 13.3143609,24.1194205 13.155889,24.3591491 C12.9869941,24.6148313 12.8923364,24.6154694 12.5983658,24.4842249 C12.3852264,24.3891418 12.1629403,24.2870391 11.9353364,24.2561956 C11.5658523,24.2059951 11.2861335,24.4006284 11.1272362,24.7482029 C10.9874831,25.0547237 11.0361946,25.2638215 11.3352704,25.5635355 C11.9670308,26.195934 12.7293976,26.6341247 13.5379232,26.9895697 C14.00951,27.1967531 14.3566592,27.0474279 14.60362,26.5954108 C14.8127178,26.2129511 14.6491408,25.6801027 14.2328597,25.3867702 C13.7055418,25.0151589 13.70618,25.0157971 14.0837472,24.4791198 C14.1513902,24.3827604 14.2120137,24.2806577 14.2696592,24.1774914 C14.3253902,24.0777286 14.3730381,23.9732861 14.4283438,23.8628875" id="Fill-40" fill="#FFFFFF"></path>
                <path d="M57.619866,11.7094342 C57.774509,11.8249379 57.8512988,11.8891775 57.9348954,11.9427814 C58.0204064,11.9976616 58.1095335,12.0493511 58.2022768,12.0901922 C58.4960347,12.2193095 58.612602,12.1835736 58.6985384,11.8834342 C58.7963868,11.5420284 58.8629663,11.1906249 58.9227389,10.8398597 C58.9389051,10.7449892 58.8821105,10.6375687 58.8351007,10.4333633 C58.3973355,10.8932509 58.0301912,11.2789012 57.619866,11.7094342 M59.5062132,15.4181017 C59.0512181,15.2181506 58.5960103,15.0181995 58.143355,14.819312 C58.2239736,14.4725883 58.3031032,14.1971237 58.3494748,13.9163413 C58.4113746,13.5409012 58.3932939,13.5219697 58.0550787,13.3792386 C57.6502841,13.2082166 57.2433623,13.0416616 56.7585873,12.8406469 C56.5024797,13.1205785 56.2302059,13.4188034 55.9260249,13.751488 C55.5384601,13.5747227 55.1628073,13.4032753 54.7948122,13.235444 C54.8065115,13.1354685 54.7950249,13.0729306 54.820976,13.0386836 C55.1364308,12.6230406 55.43891,12.1952729 55.7815922,11.8026029 C56.3484748,11.1529746 56.9740665,10.5586518 57.4862817,9.85541956 C57.8634235,9.33809927 58.3350103,8.88948557 58.767245,8.41236822 C58.8742401,8.29409927 58.9929345,8.20731198 59.1684235,8.29537555 C59.5002572,8.46214328 59.8361325,8.61997702 60.1688171,8.78419218 C60.6446582,9.01924108 60.6465726,9.05242445 60.5578709,9.57165917 C60.3891888,10.5595027 60.243267,11.5513878 60.0794773,12.5400822 C59.9297267,13.4447545 59.7697658,14.3477252 59.610443,15.2509086 C59.6025726,15.2964293 59.5589663,15.3355687 59.5062132,15.4181017" id="Fill-42" fill="#FFFFFF"></path>
                <path d="M28.0100435,12.3434281 C27.4788968,12.6422912 26.9836988,12.9207337 26.4631878,13.2134281 C26.6450582,13.6267313 26.749288,14.0153597 27.0613394,14.31401 C27.6467281,13.9947264 28.2085056,13.6860785 28.7728357,13.3818976 C29.0902049,13.2108756 29.215068,13.2372521 29.4003418,13.5361152 C29.540733,13.7624428 29.6573002,14.0034477 29.8155594,14.2955039 C28.6384005,14.9302423 27.4865545,15.551367 26.3087575,16.1863181 C26.2549408,16.1184623 26.1962318,16.0610296 26.1568797,15.9925357 C25.8554641,15.4664941 25.553623,14.9404526 25.2609286,14.4095186 C25.0809726,14.0832154 24.9246279,13.7439367 24.7450973,13.4174208 C24.3120117,12.6295284 23.873821,11.8446139 23.4332905,11.0609758 C23.254398,10.742543 23.2735423,10.6538413 23.5647477,10.4913279 C24.230755,10.1197166 24.8912318,9.7376824 25.5608553,9.372878 C25.9158748,9.17930831 26.2859971,9.01317873 26.6737746,8.82258704 C26.8575594,9.08379976 27.0487892,9.33714205 27.2191731,9.60367262 C27.3187232,9.75937922 27.2591633,9.89126186 27.098777,9.98549413 C26.6014518,10.2771249 26.1064665,10.5725846 25.6110557,10.8676188 C25.5125692,10.9263279 25.4168479,10.9901421 25.3404836,11.0384281 C25.3334641,11.0928829 25.3251682,11.111389 25.3298479,11.1256408 C25.699332,12.2532374 25.9348064,12.0158487 26.7556694,11.5827631 C26.9409433,11.4849147 27.0607012,11.1688218 27.3008553,11.3000663 C27.4901707,11.4036579 27.6150337,11.637856 27.7469164,11.8286604 C27.8419995,11.9662863 27.9019848,12.1281616 28.0100435,12.3434281" id="Fill-44" fill="#FFFFFF"></path>
                <path d="M7.55336553,40.1157638 C7.82691565,40.1157638 8.11152689,40.1047027 8.39464914,40.11938 C8.61097922,40.1304411 8.67351711,40.2899765 8.66096699,40.4801428 C8.6396956,40.8024044 8.61395721,41.1240279 8.58353912,41.4454386 C8.55056846,41.7908861 8.59927995,41.8617198 8.93621883,41.9278738 C9.77133374,42.0916636 9.87003301,42.0216807 9.95830929,41.1835878 C10.0027665,40.7611379 10.0438203,40.3380499 10.0750892,39.9145364 C10.0918936,39.6886342 10.1861259,39.5852553 10.4224511,39.5748323 C11.3288252,39.5337785 11.375835,39.5746196 11.3077665,40.4735487 C11.2401235,41.3718396 11.1699279,42.2699178 11.098456,43.1682088 C11.0676125,43.5574753 11.0384707,43.59938 10.6887689,43.5832137 C8.78646822,43.4955756 6.8843802,43.3996416 4.98229218,43.304133 C4.93421883,43.3017932 4.88720905,43.2728641 4.79382763,43.2403188 C4.7827665,43.1277932 4.75319927,42.9991012 4.75936797,42.872111 C4.80978117,41.853424 4.8650868,40.8349496 4.92251956,39.816688 C4.94676895,39.384666 4.98484474,39.3387198 5.39963692,39.3525462 C6.20199389,39.3789227 6.24219682,39.2702259 6.16455623,40.1642626 C6.12924572,40.5703335 6.12009902,40.9791697 6.11159046,41.387155 C6.10435819,41.7236685 6.14987897,41.767913 6.47469315,41.8138592 C6.49149756,41.816199 6.50872738,41.8166244 6.52553178,41.8179007 C7.50039976,41.8955413 7.40744377,41.7662112 7.43148044,41.0455364 C7.439989,40.7911306 7.45594254,40.5367247 7.47551222,40.2827443 C7.47912836,40.2359472 7.51656601,40.1919154 7.55336553,40.1157638" id="Fill-46" fill="#FFFFFF"></path>
                <path d="M22.3184993,15.7364494 C22.3282841,15.6451951 22.3529589,15.5875496 22.3357291,15.5481976 C21.9775188,14.7273345 21.6146289,13.9083858 21.252377,13.0890117 C21.2249369,13.027112 21.1943061,12.9664885 21.1681423,12.9039506 C20.889487,12.2373051 20.9264993,12.1256303 21.5320958,11.7512538 C21.7180078,11.6363883 21.8964748,11.509398 22.125355,11.3564567 C22.5365311,11.9792831 22.5575897,12.7403736 22.8911252,13.382557 C23.2172156,14.0098504 23.4352474,14.6933002 23.6990127,15.3527134 C23.9685213,16.0253149 24.2359027,16.6987672 24.5241301,17.4222073 C24.1678342,17.7112856 23.8219614,18.0041927 23.4620494,18.2788064 C23.2923037,18.4083491 23.1089443,18.3598504 22.9451545,18.2347746 C21.9656068,17.4853834 20.9890372,16.7319506 20.0043844,15.9891535 C19.6406435,15.7147526 19.2532914,15.4718333 18.8842328,15.2040264 C18.6272743,15.017689 18.3832914,14.8132709 18.1339907,14.6171487 C18.2984186,14.1310973 18.6742841,13.9066841 18.9871863,13.6399408 C19.1567193,13.4955081 19.3728367,13.5591095 19.5468367,13.7063076 C19.9973648,14.0879164 20.4400225,14.4797355 20.9035262,14.8453907 C21.3004504,15.1582929 21.7205604,15.4420533 22.1345017,15.7334714 C22.1670469,15.7564445 22.230223,15.7364494 22.3184993,15.7364494" id="Fill-48" fill="#FFFFFF"></path>
                <path d="M51.9200046,5.93095379 C52.4807186,5.89309071 52.9165694,6.06836699 53.3060487,6.33723741 C53.4070878,6.40700758 53.436655,6.6392912 53.4317626,6.79478509 C53.4004936,7.79602958 53.3479533,8.79663594 53.3100902,9.79766773 C53.3062614,9.90274841 53.3536966,10.0099562 53.3773078,10.1161005 L53.5074888,10.1924648 C53.5542858,10.1024868 53.5940633,10.0080418 53.6489435,9.92338166 C54.1728579,9.11357971 54.6993249,8.30526675 55.2249411,7.49631565 C55.2340878,7.48227653 55.2394056,7.46568484 55.2470633,7.45058215 C55.527633,6.88008337 55.5259313,6.88540122 56.1040878,7.07663105 C56.3708311,7.16490733 56.6458702,7.22829609 56.9596232,7.31465795 C56.6056672,7.87303203 56.2725572,8.39439389 55.9437015,8.91830831 C55.692699,9.31842323 55.4448873,9.72023985 55.2002663,10.1241836 C55.0947601,10.2979709 55.0141416,10.4877117 54.8994888,10.6549049 C54.4591709,11.2966628 54.0009851,11.9258707 53.5691758,12.5729465 C53.4119802,12.8084208 53.2696746,12.8977606 52.9861269,12.7722594 C52.7408677,12.6635626 52.4656159,12.6208071 52.2014252,12.5586946 C51.9691416,12.5040271 51.8521489,12.3723572 51.8566159,12.128587 C51.8763983,11.0418315 51.8966061,9.95507604 51.9091562,8.86853325 C51.9185156,8.06979242 51.9168139,7.27105159 51.9197919,6.47231076 C51.9204301,6.30830831 51.9200046,6.14430587 51.9200046,5.93095379" id="Fill-50" fill="#FFFFFF"></path>
                <path d="M6.03901247,44.7240198 C6.05539144,45.0509611 6.06836699,45.3855601 6.0898511,45.7199465 C6.11622763,46.1234648 6.18472152,46.1819611 6.59440856,46.1519685 C7.98257971,46.0505039 9.37053814,45.9466995 10.7584966,45.8424697 C11.1639293,45.8120516 11.2271054,45.8603377 11.2777313,46.266834 C11.3070858,46.5027337 11.3370785,46.7386335 11.3566482,46.9751714 C11.384301,47.3135993 11.3226139,47.3961323 10.9703597,47.4239978 C9.7866066,47.5184428 8.6022154,47.6028902 7.41803692,47.6894648 C7.197878,47.7056311 6.9766555,47.7056311 6.75713472,47.7271152 C6.34957482,47.7668927 6.29809804,47.8394281 6.34042812,48.2397557 C6.3706335,48.5264941 6.3936066,48.8140834 6.41275086,49.1018853 C6.4272154,49.322257 6.32702714,49.4394623 6.09857237,49.4807289 C5.2870687,49.6279269 5.20687555,49.5887875 5.11498313,48.7721787 C4.98246235,47.5920418 4.87121296,46.4093523 4.76081443,45.2266628 C4.72146235,44.8018731 4.76464328,44.7612447 5.18198802,44.7161494 C5.40108337,44.6925381 5.62102958,44.6789244 5.84097579,44.6644599 C5.87224474,44.6623328 5.90457726,44.6825406 6.03901247,44.7240198" id="Fill-52" fill="#FFFFFF"></path>
                <path d="M12.9873345,21.8428496 C11.9641804,21.283412 11.9175961,21.1353631 12.5689262,20.3089694 C13.019667,19.7371944 13.5316694,19.2139181 13.9983638,18.654055 C14.2353271,18.3698692 14.4359164,18.0550526 14.6475667,17.7504462 C14.8828284,17.4115929 14.9521731,17.3915978 15.2961315,17.6362188 C15.5286279,17.8012848 15.7468724,17.9867714 16.0208479,18.2020379 C15.8106866,18.4532531 15.6137134,18.6927689 15.4118479,18.9282433 C15.3459066,19.0052457 15.2648626,19.0690599 15.1957306,19.1437225 C15.020667,19.332187 15.0457672,19.5183117 15.2333809,19.6729548 C16.0027672,20.3083313 16.7806621,20.9334976 17.5483467,21.5710012 C17.9242122,21.8828399 18.2858259,22.2123337 18.6519066,22.5360844 C18.7997428,22.6669034 18.7595399,22.8102726 18.6572244,22.9436443 C18.4817355,23.1727372 18.299865,23.3971504 18.1196963,23.6230526 C17.9844103,23.7927983 17.8438064,23.767698 17.6768259,23.6566614 C16.8561756,23.1114756 16.1376279,22.4401504 15.3795154,21.8175367 C14.9883345,21.4963386 14.5967281,21.1753533 14.2004421,20.860324 C14.0475007,20.739077 13.9247648,20.8086345 13.8081976,20.9409425 C13.5418797,21.243209 13.2664152,21.5371797 12.9873345,21.8428496" id="Fill-54" fill="#FFFFFF"></path>
                <path d="M61.9925413,11.0793968 C62.2435438,10.7054457 62.4651917,10.375101 62.6864142,10.0453944 C62.7578861,10.0626242 62.8217002,10.0583699 62.8519056,10.0879372 C63.54982,10.780321 64.47938,11.119387 65.2674851,11.6737196 C65.6282479,11.9277 65.9956049,12.1718956 66.3548787,12.4280032 C66.617155,12.6151914 66.6362993,12.7547318 66.4569814,13.0227513 C66.0455927,13.6381328 65.931578,13.6611059 65.2949252,13.2590765 C65.2232406,13.2137685 65.1511306,13.1686731 65.0760425,13.1288956 C64.6270034,12.8910814 64.5357491,12.9119274 64.253265,13.3441621 C63.4949399,14.5045166 62.7408689,15.667211 61.9836073,16.8282037 C61.9391501,16.8964848 61.8817174,16.9564702 61.8357711,17.0136902 C61.3994949,16.8677685 60.8351648,16.4300032 60.6179839,16.0847685 C61.1389203,15.2494408 61.6456049,14.4109225 62.180155,13.5904848 C62.4745511,13.1384677 62.8272308,12.7247391 63.1314117,12.278678 C63.3541232,11.9519494 63.3224289,11.8885606 62.9863408,11.687546 C62.6702479,11.4988687 62.3581966,11.3035973 61.9925413,11.0793968" id="Fill-56" fill="#FFFFFF"></path>
                <path d="M30.3401333,7.29778973 C30.7057885,7.17335208 31.0852702,7.04444743 31.4643264,6.91469193 C31.6710844,6.8440709 31.7868007,6.94255746 31.8563582,7.12506601 C31.994835,7.48859413 32.130121,7.85318582 32.2709377,8.21586308 C32.7055122,9.3349511 32.8858936,10.5382738 33.4142751,11.6275819 C33.5536027,11.9147457 33.6289034,12.2327531 33.7354731,12.5360831 C33.8060941,12.7370978 33.7218594,12.8762127 33.541478,12.9413032 C33.2234707,13.0565941 32.9014218,13.1686944 32.5717152,13.2399535 C32.4853533,13.2584597 32.333901,13.1440196 32.2681724,13.0512763 C32.1726638,12.9162029 32.1186345,12.7483716 32.0629034,12.5888362 C31.7004389,11.550154 31.3305293,10.5138117 30.9867836,9.46896088 C30.7553509,8.76615403 30.5628447,8.05058435 30.3401333,7.29778973" id="Fill-58" fill="#FFFFFF"></path>
                <path d="M17.1354689,15.335122 C17.5774885,15.8130902 17.9807941,16.2640438 18.400266,16.6990438 C18.8586645,17.1738213 19.337909,17.6281782 19.7963076,18.102743 C20.0764518,18.3930976 20.3263907,18.7125939 20.6054714,19.0042247 C20.7688357,19.1746086 20.9607037,19.3188286 21.1438504,19.4698555 C21.532266,19.7906281 21.5288626,19.8772027 21.188733,20.2273298 C20.9421976,20.4806721 20.7267183,20.7640071 20.4625276,21.0747822 C20.1636645,20.7557112 19.9479726,20.5255548 19.7327061,20.2947601 C19.2370826,19.7642516 18.7544347,19.2205548 18.2424323,18.7062125 C17.7651022,18.2267553 17.2562905,17.7787797 16.7617306,17.3163396 C16.6628186,17.2240218 16.5556108,17.1378726 16.4703125,17.0338555 C16.0146792,16.4803738 16.0193589,16.3718897 16.5347648,15.8579729 C16.7015325,15.6918433 16.8899971,15.5474105 17.1354689,15.335122" id="Fill-60" fill="#FFFFFF"></path>
                <path d="M64.9140396,19.3297408 C64.7455702,19.2452934 64.6139002,19.2023252 64.5109467,19.1225575 C64.2971692,18.9564279 64.0914748,18.7777482 63.8953526,18.5907726 C63.6837022,18.3889071 63.6788098,18.298291 63.8766337,18.0760049 C64.2699418,17.6339853 64.6732474,17.2015379 65.0720861,16.7646235 C65.1403672,16.6897482 65.2243892,16.6225306 65.2716117,16.535956 C65.6653452,15.8129413 66.29902,15.2862616 66.8023012,14.6534377 C67.0324577,14.3637213 67.2568709,14.0688998 67.4700103,13.7664205 C67.6478391,13.5139291 67.7208,13.4947848 67.9409589,13.6913325 C68.1928122,13.9159584 68.4510469,14.1342029 68.6973697,14.3645721 C68.911998,14.5653741 68.925399,14.6804523 68.7099198,14.8674279 C68.0105164,15.4747262 67.4995775,16.2334768 66.9690689,16.9777628 C66.9107853,17.0598704 66.8435677,17.1398509 66.7661399,17.2032396 C66.1837291,17.6809951 65.7493672,18.2838264 65.3162817,18.8898484 C65.2041814,19.0466186 65.0552817,19.1772249 64.9140396,19.3297408" id="Fill-62" fill="#FFFFFF"></path>
                <path d="M13.0899477,54.7887711 C13.2752215,55.223133 13.4570919,55.6496244 13.6521506,56.1075976 C13.4543267,56.3471134 13.1333413,56.4285829 12.8449012,56.5530205 C12.0355247,56.9020841 11.2235956,57.2466807 10.4025198,57.5672406 C9.91476675,57.7574068 9.40552958,57.8909912 8.9111824,58.0654166 C8.67485721,58.1485878 8.44512616,58.256221 8.22305281,58.3732137 C7.89568606,58.5457247 7.78401125,58.512754 7.65531932,58.1694337 C7.5421555,57.8671672 7.42856626,57.5649007 7.32050758,57.2607198 C7.30476675,57.2164753 7.31816773,57.1615951 7.31816773,57.0439643 C9.20345134,56.3073359 11.1066029,55.563688 13.0899477,54.7887711" id="Fill-64" fill="#FFFFFF"></path>
                <path d="M48.4374308,78.6738022 C48.4340274,77.5902374 48.1583501,76.63579 48.1840885,75.5881738 C48.585267,75.5281885 48.9794259,75.4528878 49.3767756,75.4233205 C49.4593086,75.4171518 49.6020396,75.5662643 49.633734,75.6692178 C49.6979736,75.8776775 49.7118,76.1031543 49.7349858,76.3226751 C49.8175188,77.1169489 49.8777169,77.913988 49.9804577,78.7054966 C50.0723501,79.412345 50.2140176,80.1125993 50.3229271,80.8173205 C50.3692988,81.1159709 50.388443,81.4190883 50.4205628,81.7279489 C50.0249149,81.9298144 49.6286289,81.8868462 49.24702,81.8953548 C49.1378978,81.8974819 48.9953795,81.7881469 48.9211423,81.6900858 C48.6963037,81.3927117 48.4999687,81.0738535 48.2872548,80.76712 C48.1041081,80.5033548 47.9186215,80.2410785 47.7250518,79.9847582 C47.5110616,79.7012105 47.2898391,79.4225553 47.0656386,79.146878 C46.9543892,79.0105284 46.828888,78.885878 46.7097682,78.7556971 C46.6736068,78.7699489 46.6372328,78.7842007 46.6010714,78.7982399 C46.5968171,78.9214012 46.5749076,79.0466897 46.5910738,79.1668731 C46.6957291,79.9411518 46.8088929,80.7145797 46.9184406,81.4882203 C46.9375848,81.6228682 46.9597071,81.7575161 46.9699174,81.8928022 C46.9828929,82.0676531 46.9058905,82.1863474 46.7291252,82.2293156 C46.6959418,82.2373988 46.6621203,82.2420785 46.6291496,82.2495235 C45.60791,82.4741494 45.5691961,82.436499 45.4439076,81.4061127 C45.3598856,80.7147924 45.2263012,80.0298535 45.1346215,79.3393841 C45.009333,78.3964232 44.8934039,77.4519733 44.7915139,76.5064599 C44.7345066,75.9761641 44.7634357,75.9585088 45.2699076,75.8912912 C45.3205335,75.8846971 45.3734993,75.8853352 45.4211472,75.8700198 C46.0471643,75.6696433 46.4443012,75.9561689 46.777624,76.4598756 C47.2349589,77.150345 47.7246264,77.8193303 48.20302,78.4957606 C48.2302474,78.5340491 48.2804479,78.5559587 48.4374308,78.6738022" id="Fill-66" fill="#FFFFFF"></path>
                <path d="M21.1581235,73.3444247 C21.5631308,73.3469773 21.6882066,73.3140066 21.9468667,72.9879161 C22.3767616,72.4457083 22.7851724,71.8862707 23.1918814,71.3259822 C23.2897298,71.1911215 23.365456,71.0315861 23.4141675,70.8718379 C23.5035073,70.5789308 23.4596883,70.3077205 23.2322971,70.0741606 C22.8085709,69.6395861 22.3027372,69.658943 21.8732677,70.1600971 C21.5118667,70.5819088 21.1536565,71.0092511 20.8301186,71.4602046 C20.6367616,71.7301386 20.4572311,72.0343196 20.3693802,72.3504125 C20.1996345,72.9598379 20.5274267,73.3403831 21.1581235,73.3444247 M24.9057176,70.8486521 C24.9112482,71.2985421 24.829566,71.7209919 24.5783509,72.1094076 C24.33139,72.4912291 24.1378203,72.9094247 23.8744804,73.2784834 C23.3514169,74.0117083 22.7209328,74.6296423 21.7788227,74.7668428 C21.069209,74.870009 20.3997983,74.7749259 19.8514218,74.2316545 C19.4764071,73.8600433 19.1062848,73.4939626 18.9171822,72.9843 C18.7823215,72.6209846 18.7695587,72.2627743 18.8720868,71.8873342 C19.0584242,71.2032462 19.4693875,70.642745 19.817813,70.0422535 C20.1764487,69.4241068 20.6903655,69.0325005 21.2934095,68.6957743 C22.1878716,68.196322 23.1442335,68.2701337 23.9304242,68.9489039 C24.0714535,69.0705763 24.2133337,69.1920359 24.344791,69.3237059 C24.778302,69.7572169 24.904654,70.1081949 24.9057176,70.8486521" id="Fill-68" fill="#FFFFFF"></path>
                <path d="M66.4996306,69.0889122 C66.2779826,69.2873743 66.0469753,69.5075333 65.801078,69.7096115 C65.6223983,69.8563841 65.4583958,69.8536188 65.2675914,69.6717484 C64.7415499,69.1703817 64.2010438,69.2854599 63.8858017,69.9408315 C63.7864643,70.1475895 63.8160315,70.3407337 63.963655,70.5092032 C64.1217015,70.6893719 64.2876183,70.8771983 64.566699,70.7991323 C64.7132589,70.7580785 64.850034,70.6842667 64.994254,70.6344917 C65.4111733,70.4904844 65.8214985,70.3147826 66.249479,70.2182105 C66.9361196,70.0635675 67.596809,70.0695235 68.0996648,70.7021347 C68.6161342,71.3517631 68.7992809,72.0279807 68.4642565,72.8311885 C68.0033054,73.9362374 66.4917601,74.8300614 65.2220707,74.3080614 C64.9940413,74.2142545 64.7762222,74.0604623 64.5983934,73.8881641 C64.3797235,73.6760883 64.4084399,73.4157264 64.6568897,73.2310907 C64.8598188,73.0802765 65.0861465,72.9503083 65.3205572,72.8582032 C65.4211709,72.8188511 65.5807064,72.8735186 65.6921685,72.9283988 C66.0920707,73.1249465 66.4813372,73.1013352 66.8665621,72.903724 C67.1835059,72.7409978 67.3121978,72.3257802 67.1467064,72.0324477 C66.9656868,71.7118878 66.6268335,71.6297802 66.2837259,71.7874012 C65.8389411,71.9918193 65.3903274,72.1945357 64.9283127,72.3536457 C64.214232,72.599543 63.5950218,72.4072496 63.0828066,71.8601494 C62.933056,71.7004012 62.7720315,71.5472472 62.6473812,71.3692056 C62.0419973,70.504098 62.3897846,69.4156408 63.2529778,68.7843059 C63.5261024,68.5843548 63.8185841,68.4065259 64.1165963,68.245076 C64.8587553,67.8426213 66.1616281,68.1180858 66.4996306,69.0889122" id="Fill-70" fill="#FFFFFF"></path>
                <path d="M53.1915022,76.5455355 C53.0919521,76.635088 53.0468567,76.6567848 53.0468567,76.6786944 C53.0462186,77.1806993 53.0383482,77.6833423 53.0604704,78.1844963 C53.0685535,78.3672176 53.2266,78.4374132 53.3971966,78.3846601 C53.6507516,78.3061687 53.9189839,78.2429927 54.1119154,77.9651883 C53.900265,77.4495697 53.5601355,77.008401 53.1915022,76.5455355 M57.0505584,79.8566406 C56.6310866,80.1178533 56.1588616,80.1789022 55.7021648,80.272709 C55.6315438,80.2871736 55.5190181,80.1993227 55.4577565,80.1306161 C55.380754,80.0438289 55.3439545,79.9227946 55.2769496,79.8255844 C54.9268225,79.3199633 54.8198274,79.2880562 54.2193359,79.4665232 C53.9755658,79.5390587 53.7269032,79.5950024 53.4810059,79.6609438 C53.1434289,79.7513472 53.1062039,79.798357 53.1153506,80.1578435 C53.1210939,80.3784279 53.1602333,80.6000758 53.1444924,80.8181076 C53.1357711,80.9376528 53.0560034,81.0591125 52.9847443,81.1637677 C52.953688,81.2099267 52.8647736,81.2184352 52.8007467,81.2407702 C52.5042235,81.3445746 52.2070621,81.44689 51.8841623,81.5589902 C51.8411941,81.4411467 51.7918445,81.3666968 51.7899301,81.2911834 C51.7403677,79.3063496 51.7056954,77.3213032 51.6416685,75.3373203 C51.6295438,74.9625183 51.7665315,74.7521443 52.0968763,74.6513178 C52.5176244,74.5228386 52.9411379,74.398401 53.3712455,74.3090611 C53.4610108,74.2903423 53.6226733,74.4064841 53.6856367,74.5030562 C54.1829619,75.2679756 54.6575267,76.0475721 55.1527247,76.8137677 C55.5207198,77.3832029 55.922111,77.9309413 56.2841501,78.50378 C56.5517443,78.9270807 56.7797736,79.3752689 57.0505584,79.8566406" id="Fill-72" fill="#FFFFFF"></path>
                <path d="M17.4584751,66.5575313 C17.1285557,66.2665386 16.8754262,66.0648858 16.6484604,65.8368565 C16.388524,65.5760692 16.4106462,65.4052599 16.6961083,65.1606389 C17.5295215,64.4467709 18.7228467,64.3869983 19.558387,65.0704482 C20.0214653,65.449079 20.3477685,65.9625704 20.5181523,66.5396633 C20.7510741,67.3281939 20.3330912,67.9191132 19.8251303,68.4438785 C19.4973381,68.7825191 19.0808443,68.9601352 18.5879861,68.9480105 C17.9598418,68.9324824 17.3312721,68.9443944 16.7029152,68.9446071 L16.1149738,68.9446071 C16.2126095,69.1177562 16.2472819,69.2236878 16.3172648,69.2955851 C16.6484604,69.6359274 16.9907171,69.965634 17.3263797,70.301722 C17.5992917,70.5750594 17.59759,70.7265117 17.318722,70.9736853 C17.2172575,71.0634506 17.0964359,71.1330081 17.0030545,71.2295802 C16.9222232,71.3136022 16.867343,71.4229372 16.7618369,71.5788565 C16.3421523,71.1800178 15.9188516,70.9407147 15.6153088,70.5480447 C15.1275557,69.9167098 14.5819445,69.341744 13.9431645,68.8582452 C13.8499958,68.7878369 13.7802257,68.6863724 13.6996071,68.5995851 C13.5430496,68.4309029 13.5745313,68.2924262 13.7155606,68.1116193 C13.9971939,67.7510692 14.3188174,67.5655826 14.7995509,67.5817489 C15.7663357,67.6147196 16.7358858,67.5726022 17.7024579,67.6040839 C18.1529861,67.6187611 18.4829054,67.429233 18.8013381,67.1665313 C18.9698076,67.0274164 19.0610619,66.8504384 19.0091597,66.6275142 C18.9515142,66.3788516 18.8113357,66.1974066 18.5543773,66.1280619 C18.2691279,66.0510594 18.0185509,66.1287 17.7907342,66.3050399 C17.6633186,66.4039518 17.5337758,66.500524 17.4584751,66.5575313" id="Fill-74" fill="#FFFFFF"></path>
                <path d="M41.6102281,76.0008601 C41.5893822,76.3509873 41.5817244,76.6692073 41.5481156,76.9844494 C41.5247171,77.2024812 41.356035,77.2456621 41.168634,77.2199237 C40.750013,77.1627037 40.3320301,77.0999531 39.9140472,77.0384787 C39.8470423,77.0286939 39.7804628,77.0135912 39.7134579,77.0027428 C39.1214751,76.9068088 39.0578736,76.9561584 39.0217122,77.5385692 C38.9736389,78.3094445 38.9736389,78.3102954 39.7340912,78.4360093 C39.9516976,78.4719579 40.1701548,78.5032269 40.3888247,78.5323687 C40.7195949,78.5766132 40.7753259,78.6312807 40.7610741,78.943332 C40.751502,79.1468993 40.7338467,79.3508919 40.7047049,79.552332 C40.657057,79.8843785 40.5585704,79.9447892 40.2165264,79.8818259 C39.8997954,79.8235423 39.5843406,79.7522831 39.2648443,79.7169726 C38.8815337,79.6748553 38.8128271,79.7269702 38.7566707,80.1051756 C38.6766902,80.6422782 38.6186193,81.1827844 38.5552306,81.7222269 C38.5037538,82.1629702 38.4675924,82.1882831 38.0538638,82.1123443 C37.7871205,82.06342 37.5169738,82.0336401 37.2478907,81.9981169 C37.0241156,81.9685496 36.9113773,81.8532587 36.9441352,81.6194861 C36.9513675,81.5690729 36.9588125,81.5186597 36.9654066,81.4680337 C37.1508932,80.0209408 37.3393577,78.5740606 37.5201645,77.1263296 C37.5686633,76.7387648 37.5922746,76.348222 37.6303504,75.9593809 C37.6643846,75.6115936 37.6986315,75.562244 38.0289763,75.5888333 C38.7562452,75.6471169 39.4824506,75.7215667 40.2073797,75.8028235 C40.6587587,75.8536621 41.1075851,75.9289628 41.6102281,76.0008601" id="Fill-76" fill="#FFFFFF"></path>
                <path d="M65.4211071,67.1865264 C66.5255178,65.9553381 67.5695178,64.7917929 68.6337257,63.6057 C68.9721535,63.8973308 69.2631462,64.1481205 69.583068,64.4235851 C69.5149995,64.5271768 69.4658626,64.6309812 69.3905619,64.709898 C69.1916743,64.9189958 68.9721535,65.1091621 68.7773076,65.3216633 C68.5065227,65.6175484 68.5190729,65.7992061 68.8179359,66.0448907 C69.6005105,66.6892012 70.3677697,67.3492526 71.0705765,68.0835411 C71.2790362,68.3015729 71.5504592,68.4581303 71.7827428,68.6553161 C71.9586572,68.804854 72.1177672,68.974387 72.3326083,69.1813577 C71.9726963,69.5906193 71.6536254,69.9535093 71.2875447,70.3697905 C70.9999555,70.1147465 70.7242782,69.9175606 70.5083736,69.6684726 C70.1499506,69.2545313 69.7270753,68.9252501 69.3061144,68.5821425 C68.7834763,68.1558638 68.3142293,67.6634311 67.8286034,67.1924824 C67.5086817,66.88192 67.4620973,66.8746878 67.1355814,67.1982257 C66.9545619,67.3775435 66.7846034,67.5679225 66.604222,67.7474531 C66.5125423,67.8382819 66.407887,67.9161352 66.3036572,68.0041988 C65.9950093,67.7183112 65.7186939,67.4622037 65.4211071,67.1865264" id="Fill-78" fill="#FFFFFF"></path>
                <path d="M55.5888946,73.5651367 C55.9362565,73.3705034 56.2510731,73.1773592 56.5807797,73.0137822 C56.925589,72.8427601 57.0300315,72.8929606 57.207435,73.2524472 C57.768787,74.3894032 58.3580046,75.5101929 58.8444814,76.6867137 C59.1271782,77.3708017 59.2288555,77.5588408 60.082902,77.1017186 C60.4262222,76.9181465 60.7567797,76.7105377 61.0964839,76.5195205 C61.1805059,76.4720853 61.2772907,76.4469851 61.3823714,76.406144 C61.5767919,76.7037308 61.7620658,76.9821733 61.9413836,77.264232 C62.0322125,77.4067504 61.982012,77.5224667 61.8505548,77.6105303 C61.8086501,77.6388213 61.7624912,77.6613689 61.7173958,77.6849802 C61.0877626,78.0110707 60.4589802,78.3388628 59.8278579,78.662188 C59.4815597,78.8398042 59.1350487,79.017633 58.7821562,79.18121 C58.4741465,79.3241538 58.3786379,79.289056 58.2199533,78.9835988 C58.0325523,78.6224105 57.8594032,78.25399 57.6777455,77.8898237 C57.3384667,77.2087137 56.9889778,76.5327088 56.660122,75.8464936 C56.4344325,75.3749068 56.24299,74.8871538 56.0241073,74.4121636 C55.8924374,74.1264888 55.7369435,73.8516623 55.5888946,73.5651367" id="Fill-80" fill="#FFFFFF"></path>
                <path d="M43.9654606,79.0633027 C43.9652479,79.9628699 43.9646098,80.8624372 43.9637589,81.7620044 C43.9633335,82.3012342 43.8769716,82.3867452 43.3488029,82.3754714 C43.1960743,82.372068 43.0433457,82.3727061 42.8906171,82.3707917 C42.4098836,82.3648357 42.3656391,82.3263345 42.3567051,81.8528333 C42.3422406,81.1059946 42.3350083,80.359156 42.3241599,79.6123174 C42.3094826,78.5768259 42.2903384,77.5417599 42.2805535,76.5062685 C42.2758738,75.9938406 42.3220328,75.9521487 42.8231868,75.9359824 C43.0437711,75.9289628 43.2643555,75.926623 43.4849399,75.9244958 C43.8654851,75.9208797 43.8999447,75.9464054 43.9088787,76.3137623 C43.9316391,77.230134 43.9469545,78.1467183 43.9654606,79.0633027" id="Fill-82" fill="#FFFFFF"></path>
                <path d="M61.0303511,70.50229 C61.4119599,71.0121653 61.7705956,71.4214269 62.0447839,71.8811017 C62.249202,72.2239966 62.3572606,72.6187936 62.6033707,72.9538181 C63.1938645,73.7580895 63.7543658,74.5844831 64.320823,75.4064098 C64.3963364,75.5159575 64.4712117,75.647202 64.4822729,75.7739795 C64.491845,75.8860797 64.4469623,76.0507203 64.3654929,76.1134709 C64.1112998,76.3091677 63.8343462,76.4774244 63.5552655,76.637598 C63.2234318,76.8286152 63.1462166,76.8026641 62.9477545,76.4738083 C62.6067741,75.9101164 62.2836616,75.3351506 61.9267276,74.7818817 C61.49662,74.1150235 61.0388597,73.4660333 60.594713,72.808109 C60.5383438,72.7242998 60.4887814,72.6353853 60.4409208,72.5460455 C60.2913829,72.2654758 60.1531188,71.9780993 59.9931579,71.7034856 C59.8344733,71.4303609 59.8427692,71.3471897 60.0997276,71.1646812 C60.3988034,70.95218 60.6978792,70.7390406 61.0303511,70.50229" id="Fill-84" fill="#FFFFFF"></path>
                <path d="M31.5939756,79.0549856 C31.9772861,78.9235284 32.0842812,78.8509929 32.2204181,78.4576848 C32.4471711,77.8040149 32.6475477,77.1407729 32.8462225,76.4777435 C32.8938704,76.3182081 32.9125892,76.1425064 32.9057824,75.9757386 C32.893445,75.6696433 32.7622005,75.4280002 32.4705697,75.2829293 C31.9266601,75.0127826 31.4559242,75.1984819 31.2164083,75.8132252 C31.0145428,76.3309709 30.8179951,76.8525455 30.6616504,77.3851812 C30.5682689,77.7038267 30.4993496,78.0503377 30.5210465,78.3777044 C30.562313,79.0090394 30.9975257,79.2598291 31.5939756,79.0549856 M34.3058655,75.4605455 C34.4596577,75.8834208 34.5224083,76.3090614 34.4137115,76.7587386 C34.3067164,77.2007582 34.2622592,77.6593694 34.1356944,78.0947949 C33.8846919,78.9596897 33.4937237,79.7511983 32.6501002,80.1921543 C32.0147237,80.5242007 31.3510562,80.6558707 30.6542054,80.3244623 C30.1773007,80.0977093 29.7072029,79.8743597 29.3600538,79.4559513 C29.1126675,79.1577264 28.9822738,78.8239782 28.9548337,78.4355626 C28.9044205,77.7282888 29.1071369,77.0635577 29.2373178,76.3815968 C29.3715403,75.6796408 29.727198,75.1401983 30.1849584,74.6230907 C30.8637286,73.8560443 31.7909487,73.6092961 32.7573081,73.990054 C32.9304572,74.0583352 33.1048826,74.126191 33.2722885,74.2068095 C33.8247066,74.472702 34.0599682,74.7619929 34.3058655,75.4605455" id="Fill-86" fill="#FFFFFF"></path>
                <path d="M26.3426002,73.5779208 C25.9350403,73.4122166 25.6291577,73.3056469 25.339654,73.1656812 C25.0082457,73.0055076 24.9727225,72.8368254 25.1609743,72.5115858 C25.711478,71.5622435 26.8180159,71.1115027 27.8328741,71.4801359 C28.3946516,71.684554 28.8726198,72.0612704 29.2242359,72.5494489 C29.7047567,73.2165198 29.5054438,73.9127325 29.1997738,74.5757619 C29.0021626,75.0037423 28.667989,75.3089868 28.1987421,75.4604391 C27.6008032,75.6533707 27.0117983,75.8726787 26.4185391,76.0805002 C26.2634707,76.134955 26.1079768,76.1894098 25.8635685,76.2749208 C26.0128936,76.4059526 26.0809621,76.4946543 26.1705147,76.5393242 C26.5957298,76.7509746 27.0277518,76.9490112 27.4555196,77.1551311 C27.8035196,77.3229623 27.8520183,77.4663315 27.6705733,77.7917839 C27.604632,77.9102655 27.5133778,78.0155589 27.4572213,78.1378694 C27.4085098,78.243801 27.3929817,78.3650479 27.345121,78.5471311 C26.817165,78.3095296 26.338346,78.2235932 25.9222775,77.9532337 C25.2532922,77.5188719 24.5479328,77.15662 23.7853533,76.9115736 C23.6741039,76.8758377 23.5747665,76.8030895 23.4698985,76.7477839 C23.266544,76.6403633 23.2505905,76.4991213 23.3239768,76.2819403 C23.470324,75.8486421 23.7126051,75.5672215 24.1716418,75.4236396 C25.095033,75.1349868 25.9958765,74.7748621 26.9188423,74.484933 C27.3487372,74.3496469 27.5976125,74.061845 27.8111773,73.7085271 C27.9243411,73.5217643 27.9517812,73.3245785 27.8290452,73.1312215 C27.6924829,72.9155296 27.5001895,72.7906665 27.2347225,72.8102362 C26.9401137,72.831933 26.7291015,72.988065 26.5727567,73.2297081 C26.4849059,73.3652068 26.3947152,73.4992166 26.3426002,73.5779208" id="Fill-88" fill="#FFFFFF"></path>
            </g>
        </g>
    </g>
</svg>